<?xml version="1.0" encoding="utf-8"?>
<!-- Generator: Adobe Illustrator 16.0.0, SVG Export Plug-In . SVG Version: 6.00 Build 0)  -->
<!DOCTYPE svg PUBLIC "-//W3C//DTD SVG 1.1//EN" "http://www.w3.org/Graphics/SVG/1.1/DTD/svg11.dtd">
<svg version="1.1" id="Layer_1" xmlns="http://www.w3.org/2000/svg" xmlns:xlink="http://www.w3.org/1999/xlink" x="0px" y="0px"
	 width="9px" height="9.5px" viewBox="0 0 9 9.5" enable-background="new 0 0 9 9.5" xml:space="preserve">
<path fill="#FFC10D" d="M4.622,4.938c-0.816,0-1.479-0.678-1.479-1.515c0-0.837,0.662-1.515,1.479-1.515
	c0.815,0,1.479,0.677,1.479,1.515C6.101,4.258,5.438,4.938,4.622,4.938 M4.622,0.042c-1.808,0-3.273,1.501-3.273,3.352
	c0,1.749,1.482,4.006,2.472,5.102c0.369,0.411,0.8,0.964,0.8,0.964s0.463-0.557,0.858-0.978c0.99-1.053,2.414-3.166,2.414-5.088
	C7.894,1.542,6.429,0.042,4.622,0.042"/>
</svg>
