<?xml version="1.0" encoding="utf-8"?>
<!-- Generator: Adobe Illustrator 16.0.0, SVG Export Plug-In . SVG Version: 6.00 Build 0)  -->
<!DOCTYPE svg PUBLIC "-//W3C//DTD SVG 1.1//EN" "http://www.w3.org/Graphics/SVG/1.1/DTD/svg11.dtd">
<svg version="1.1" id="Layer_1" xmlns="http://www.w3.org/2000/svg" xmlns:xlink="http://www.w3.org/1999/xlink" x="0px" y="0px"
	 width="25px" height="25px" viewBox="-8 0 25 25" enable-background="new -8 0 25 25" xml:space="preserve">
<g id="apple_2_" transform="translate(233.90921,108.25001)">
	<path id="Apple_3_" fill="#FFFFFF" d="M-228.907-103.248c0.416-0.487,1.117-0.852,1.697-0.876c0.073,0.679-0.199,1.357-0.6,1.848
		c-0.403,0.488-1.063,0.869-1.709,0.817C-229.606-102.122-229.28-102.814-228.907-103.248z M-225.612-93.995
		c-0.48,0.704-0.977,1.404-1.762,1.42c-0.772,0.014-1.02-0.46-1.901-0.46s-1.158,0.444-1.888,0.474
		c-0.757,0.028-1.333-0.761-1.818-1.463c-0.989-1.435-1.745-4.057-0.729-5.826c0.503-0.878,1.405-1.435,2.382-1.449
		c0.744-0.015,1.447,0.502,1.901,0.502c0.456,0,1.309-0.619,2.206-0.528c0.375,0.015,1.429,0.151,2.105,1.146
		c-0.054,0.034-1.258,0.737-1.243,2.201c0.015,1.749,1.527,2.331,1.546,2.339C-224.828-95.601-225.056-94.812-225.612-93.995z"/>
	<rect x="-236.826" y="-88.992" fill="#FFC10D" width="7.323" height="1.616"/>
	<rect x="-229.314" y="-88.992" fill="#FFC10D" width="7.322" height="1.616"/>
</g>
</svg>
