<?xml version="1.0" encoding="utf-8"?>
<!-- Generator: Adobe Illustrator 16.0.0, SVG Export Plug-In . SVG Version: 6.00 Build 0)  -->
<!DOCTYPE svg PUBLIC "-//W3C//DTD SVG 1.1//EN" "http://www.w3.org/Graphics/SVG/1.1/DTD/svg11.dtd">
<svg version="1.1" id="Layer_1" xmlns="http://www.w3.org/2000/svg" xmlns:xlink="http://www.w3.org/1999/xlink" x="0px" y="0px"
	 width="10.76px" height="9px" viewBox="0 0 10.76 9" enable-background="new 0 0 10.76 9" xml:space="preserve">
<g id="icon_3_" transform="translate(182.000000, 150.000000)">
	<path id="behance_3_" fill="#FFC10D" d="M-175.006-148.509v0.722h2.771v-0.722H-175.006z M-182-148.886l3.196,0.038
		c0,0,1.757-0.097,1.998,1.358c0.241,1.456-0.883,1.8-0.883,1.8s1.39,0.328,1.195,2.027c-0.192,1.701-2.09,1.717-2.09,1.717H-182
		V-148.886z M-180.545-146.124l1.323,0.01c0.084,0,0.308-0.008,0.491-0.054c0.078-0.019,0.23-0.073,0.336-0.173
		c0.044-0.041,0.125-0.156,0.169-0.295c0.045-0.133,0.058-0.288,0.058-0.348c0-0.108-0.02-0.208-0.058-0.303
		c-0.037-0.091-0.096-0.172-0.169-0.24c-0.076-0.066-0.173-0.119-0.291-0.157c-0.117-0.039-0.255-0.058-0.417-0.058l-1.441-0.009
		V-146.124z M-180.545-143.204l1.445,0.008c0.092,0,0.337-0.007,0.536-0.058c0.086-0.021,0.252-0.082,0.367-0.191
		c0.049-0.046,0.137-0.175,0.189-0.326c0.049-0.147,0.062-0.318,0.062-0.384c0-0.121-0.022-0.23-0.062-0.334
		c-0.043-0.103-0.105-0.189-0.189-0.265c-0.083-0.076-0.187-0.134-0.314-0.177c-0.129-0.041-0.281-0.063-0.458-0.063l-1.574-0.008
		V-143.204z M-174.698-144.13c0.001,0.041,0,1.038,0.781,1.268c0.908,0.265,1.314-0.522,1.346-0.614h1.188
		c-0.03,0.149-0.513,2.186-3.146,1.522c-1.615-0.406-1.53-2.402-1.53-2.575c0-0.157,0.003-0.993,0.654-1.767
		c0.653-0.772,1.577-0.772,1.767-0.772c0.188,0,1.154,0,1.742,0.682c0.76,0.882,0.609,2.295,0.609,2.295L-174.698-144.13z
		 M-172.614-145.001c-0.01-0.158-0.041-0.302-0.092-0.434c-0.049-0.133-0.119-0.246-0.209-0.342c-0.09-0.097-0.195-0.173-0.32-0.229
		c-0.125-0.055-0.264-0.082-0.417-0.082c-0.139,0-0.268,0.029-0.386,0.086c-0.118,0.059-0.221,0.139-0.313,0.238
		c-0.088,0.1-0.159,0.213-0.213,0.344c-0.055,0.13-0.087,0.269-0.094,0.418H-172.614z"/>
</g>
</svg>
