<?xml version="1.0" encoding="utf-8"?>
<!-- Generator: Adobe Illustrator 16.0.0, SVG Export Plug-In . SVG Version: 6.00 Build 0)  -->
<!DOCTYPE svg PUBLIC "-//W3C//DTD SVG 1.1//EN" "http://www.w3.org/Graphics/SVG/1.1/DTD/svg11.dtd">
<svg version="1.1" id="Layer_1" xmlns="http://www.w3.org/2000/svg" xmlns:xlink="http://www.w3.org/1999/xlink" x="0px" y="0px"
	 width="25px" height="25px" viewBox="-8 0 25 25" enable-background="new -8 0 25 25" xml:space="preserve">
<g id="B_2_">
	<g>
		<path fill="#FFFFFF" d="M8.657,5.434c0.365,0.508,0.549,1.117,0.549,1.822c0,0.732-0.186,1.318-0.555,1.762
			c-0.207,0.248-0.51,0.477-0.912,0.68c0.609,0.225,1.07,0.574,1.382,1.055c0.31,0.482,0.464,1.066,0.464,1.752
			c0,0.709-0.176,1.344-0.531,1.906c-0.227,0.373-0.508,0.686-0.847,0.939c-0.382,0.293-0.831,0.494-1.351,0.602
			c-0.519,0.109-1.082,0.162-1.689,0.162h-5.386V4.16h5.776C7.017,4.182,8.05,4.605,8.657,5.434z M2.167,6.234v2.637h2.904
			c0.52,0,0.94-0.098,1.265-0.295c0.323-0.199,0.485-0.549,0.485-1.051c0-0.557-0.214-0.924-0.643-1.104
			C5.81,6.299,5.339,6.234,4.766,6.234H2.167z M2.167,10.852v3.186h2.901c0.519,0,0.922-0.07,1.211-0.209
			c0.523-0.262,0.784-0.758,0.784-1.494c0-0.621-0.252-1.049-0.76-1.281c-0.283-0.129-0.682-0.197-1.195-0.201H2.167z"/>
	</g>
	<rect x="-2.917" y="19.224" fill="#FFC10D" width="7.323" height="1.616"/>
	<rect x="4.595" y="19.224" fill="#FFC10D" width="7.323" height="1.616"/>
</g>
</svg>
