<?xml version="1.0" encoding="utf-8"?>
<!-- Generator: Adobe Illustrator 16.0.0, SVG Export Plug-In . SVG Version: 6.00 Build 0)  -->
<!DOCTYPE svg PUBLIC "-//W3C//DTD SVG 1.1//EN" "http://www.w3.org/Graphics/SVG/1.1/DTD/svg11.dtd">
<svg version="1.1" id="Layer_1" xmlns="http://www.w3.org/2000/svg" xmlns:xlink="http://www.w3.org/1999/xlink" x="0px" y="0px"
	 width="25px" height="25px" viewBox="-8 0 25 25" enable-background="new -8 0 25 25" xml:space="preserve">
<g id="Dw_3_">
	<g>
		<path fill="#FFFFFF" d="M-2.117,4.793c-1.093,0-2.156,0.09-2.976,0.243l-0.122,0.03v11.694l0.122,0.03
			c0.729,0.092,1.579,0.152,2.521,0.152c2.035,0,3.644-0.578,4.677-1.641c1.063-1.095,1.61-2.733,1.61-4.738
			c0-1.913-0.547-3.371-1.61-4.404C1.103,5.249-0.233,4.793-2.117,4.793z M0.496,13.875c-0.607,0.729-1.519,1.064-2.673,1.064l0,0
			h-0.031c-0.303,0-0.638,0-0.88-0.031V6.827c0.182-0.03,0.546-0.091,1.124-0.091c1.033,0,1.854,0.304,2.43,0.883
			c0.668,0.666,1.002,1.671,1.002,3.006C1.468,12.053,1.134,13.146,0.496,13.875z"/>
		<path fill="#FFFFFF" d="M13.01,8.104l-0.82,3.857c-0.151,0.791-0.273,1.428-0.364,2.036c-0.122-0.608-0.273-1.274-0.425-2.036
			l-0.973-3.857h-1.73l-1.063,4.283c-0.122,0.516-0.273,1.063-0.364,1.61c-0.122-0.669-0.244-1.337-0.334-1.976L6.145,8.072H3.959
			l2.217,8.748h1.943l0.941-3.521c0.152-0.547,0.305-1.186,0.426-1.914c0.121,0.668,0.243,1.275,0.426,1.914l0.911,3.521h1.944
			l2.369-8.717H13.01z"/>
	</g>
	<rect x="-3.243" y="19.501" fill="#FFFFFF" width="7.323" height="1.616"/>
	<rect x="4.27" y="19.501" fill="#FFFFFF" width="7.323" height="1.616"/>
</g>
<g id="Dw_2_">
	<g>
		<path fill="#FFFFFF" d="M-2.117,4.793c-1.093,0-2.156,0.09-2.976,0.243l-0.122,0.03v11.694l0.122,0.03
			c0.729,0.092,1.579,0.152,2.521,0.152c2.035,0,3.644-0.578,4.677-1.641c1.063-1.095,1.61-2.733,1.61-4.738
			c0-1.913-0.547-3.371-1.61-4.404C1.103,5.249-0.233,4.793-2.117,4.793z M0.496,13.875c-0.607,0.729-1.519,1.064-2.673,1.064l0,0
			h-0.031c-0.303,0-0.638,0-0.88-0.031V6.827c0.182-0.03,0.546-0.091,1.124-0.091c1.033,0,1.854,0.304,2.43,0.883
			c0.668,0.666,1.002,1.671,1.002,3.006C1.468,12.053,1.134,13.146,0.496,13.875z"/>
		<path fill="#FFFFFF" d="M13.01,8.104l-0.82,3.857c-0.151,0.791-0.273,1.428-0.364,2.036c-0.122-0.608-0.273-1.274-0.425-2.036
			l-0.973-3.857h-1.73l-1.063,4.283c-0.122,0.516-0.273,1.063-0.364,1.61c-0.122-0.669-0.244-1.337-0.334-1.976L6.145,8.072H3.959
			l2.217,8.748h1.943l0.941-3.521c0.152-0.547,0.305-1.186,0.426-1.914c0.121,0.668,0.243,1.275,0.426,1.914l0.911,3.521h1.944
			l2.369-8.717H13.01z"/>
	</g>
	<rect x="-3.243" y="19.501" fill="#FFC10D" width="7.323" height="1.616"/>
	<rect x="4.27" y="19.501" fill="#FFC10D" width="7.323" height="1.616"/>
</g>
</svg>
