<?xml version="1.0" encoding="utf-8"?>
<!-- Generator: Adobe Illustrator 16.0.0, SVG Export Plug-In . SVG Version: 6.00 Build 0)  -->
<!DOCTYPE svg PUBLIC "-//W3C//DTD SVG 1.1//EN" "http://www.w3.org/Graphics/SVG/1.1/DTD/svg11.dtd">
<svg version="1.1" id="Layer_1" xmlns="http://www.w3.org/2000/svg" xmlns:xlink="http://www.w3.org/1999/xlink" x="0px" y="0px"
	 width="10.76px" height="9px" viewBox="0 0 10.76 9" enable-background="new 0 0 10.76 9" xml:space="preserve">
<path fill="#FFC10D" d="M5.38,4.947c-0.864,0-5.315-3.618-5.315-3.618V0.931c0-0.493,0.396-0.893,0.886-0.893h8.861
	c0.488,0,0.885,0.4,0.885,0.893L10.69,1.377C10.69,1.377,6.286,4.947,5.38,4.947z M5.38,6.174c0.947,0,5.311-3.458,5.311-3.458
	l0.006,5.354c0,0.492-0.396,0.893-0.885,0.893H0.95c-0.489,0-0.886-0.4-0.886-0.893l0.007-5.354C0.071,2.716,4.516,6.174,5.38,6.174
	z"/>
</svg>
