<?xml version="1.0" encoding="utf-8"?>
<!-- Generator: Adobe Illustrator 16.0.0, SVG Export Plug-In . SVG Version: 6.00 Build 0)  -->
<!DOCTYPE svg PUBLIC "-//W3C//DTD SVG 1.1//EN" "http://www.w3.org/Graphics/SVG/1.1/DTD/svg11.dtd">
<svg version="1.1" id="Layer_1" xmlns="http://www.w3.org/2000/svg" xmlns:xlink="http://www.w3.org/1999/xlink" x="0px" y="0px"
	 width="9px" height="9px" viewBox="0 0 9 9" enable-background="new 0 0 9 9" xml:space="preserve">
<g>
	<polygon fill="#054354" points="2.416,8.564 2.768,8.162 4.279,8.162 4.668,8.162 6.18,8.162 6.533,8.564 7.012,8.564 4.756,5.928 
		5.725,4.795 8.941,8.559 8.941,8.127 8.539,7.678 8.539,6.166 8.539,5.85 8.539,5.775 8.539,4.905 8.539,3.283 8.539,2.893 
		8.539,1.382 8.941,0.932 8.941,0.443 1.996,8.564 	"/>
	<polygon fill="#054354" points="0.455,3.307 0.455,4.929 0.455,5.8 0.455,5.873 0.455,6.189 0.455,7.701 0.059,8.145 0.059,8.564 
		0.063,8.564 7.008,0.436 6.531,0.436 6.18,0.838 4.668,0.838 4.279,0.838 2.768,0.838 2.416,0.436 2,0.436 4.25,3.069 3.281,4.203 
		0.061,0.436 0.059,0.436 0.059,0.962 0.455,1.405 0.455,2.917 	"/>
</g>
</svg>
