<?xml version="1.0" encoding="utf-8"?>
<!-- Generator: Adobe Illustrator 16.0.0, SVG Export Plug-In . SVG Version: 6.00 Build 0)  -->
<!DOCTYPE svg PUBLIC "-//W3C//DTD SVG 1.1//EN" "http://www.w3.org/Graphics/SVG/1.1/DTD/svg11.dtd">
<svg version="1.1" id="Layer_1" xmlns="http://www.w3.org/2000/svg" xmlns:xlink="http://www.w3.org/1999/xlink" x="0px" y="0px"
	 width="25px" height="25px" viewBox="-8 0 25 25" enable-background="new -8 0 25 25" xml:space="preserve">
<g id="Fl_3_">
	<rect x="-2.949" y="19.122" fill="#FFFFFF" width="7.323" height="1.616"/>
	
		<rect x="4.627" y="19.249" fill="none" stroke="#FFFFFF" stroke-width="0.25" stroke-miterlimit="10" width="7.322" height="1.361"/>
	<g>
		<g>
			<polygon fill="#FFFFFF" points="-0.708,16.603 1.667,16.603 1.667,11.419 6.171,11.419 6.171,9.444 1.667,9.444 1.667,6.236 
				6.479,6.236 6.479,4.261 -0.708,4.261 			"/>
			<rect x="7.682" y="4.261" fill="#FFFFFF" width="2.407" height="12.342"/>
		</g>
	</g>
</g>
<g id="Fl_2_">
	<rect x="-2.949" y="19.122" fill="#FFC10D" width="7.323" height="1.616"/>
	
		<rect x="4.627" y="19.249" fill="none" stroke="#FFC10D" stroke-width="0.25" stroke-miterlimit="10" width="7.322" height="1.361"/>
	<g>
		<g>
			<polygon fill="#FFFFFF" points="-0.708,16.603 1.667,16.603 1.667,11.419 6.171,11.419 6.171,9.444 1.667,9.444 1.667,6.236 
				6.479,6.236 6.479,4.261 -0.708,4.261 			"/>
			<rect x="7.682" y="4.261" fill="#FFFFFF" width="2.407" height="12.342"/>
		</g>
	</g>
</g>
</svg>
