<?xml version="1.0" encoding="utf-8"?>
<!-- Generator: Adobe Illustrator 16.0.0, SVG Export Plug-In . SVG Version: 6.00 Build 0)  -->
<!DOCTYPE svg PUBLIC "-//W3C//DTD SVG 1.1//EN" "http://www.w3.org/Graphics/SVG/1.1/DTD/svg11.dtd">
<svg version="1.1" id="Layer_1" xmlns="http://www.w3.org/2000/svg" xmlns:xlink="http://www.w3.org/1999/xlink" x="0px" y="0px"
	 width="9px" height="9px" viewBox="0 0 9 9" enable-background="new 0 0 9 9" xml:space="preserve">
<g>
	<rect x="3.831" y="0.781" fill="#054354" width="0.641" height="0.641"/>
	<rect x="4.472" y="0.781" fill="#054354" width="0.641" height="0.641"/>
	<rect x="2.296" y="2.957" fill="#054354" width="0.768" height="0.641"/>
	<rect x="3.063" y="2.957" fill="#054354" width="0.768" height="0.641"/>
	<rect x="5.112" y="0.781" fill="#054354" width="0.768" height="0.641"/>
	<rect x="3.831" y="4.238" fill="#054354" width="0.641" height="0.768"/>
	<rect x="4.472" y="4.238" fill="#054354" width="0.641" height="0.768"/>
	<rect x="3.063" y="4.238" fill="#054354" width="0.768" height="0.768"/>
	<rect x="5.88" y="4.238" fill="#054354" width="0.641" height="0.768"/>
	<rect x="5.112" y="4.238" fill="#054354" width="0.768" height="0.768"/>
	<rect x="3.831" y="5.006" fill="#054354" width="0.641" height="0.641"/>
	<rect x="4.472" y="5.006" fill="#054354" width="0.641" height="0.641"/>
	<rect x="3.063" y="5.006" fill="#054354" width="0.768" height="0.641"/>
	<rect x="5.88" y="5.006" fill="#054354" width="0.641" height="0.641"/>
	<rect x="5.112" y="5.006" fill="#054354" width="0.768" height="0.641"/>
	<rect x="3.831" y="5.646" fill="#054354" width="0.641" height="0.768"/>
	<rect x="4.472" y="5.646" fill="#054354" width="0.641" height="0.768"/>
	<rect x="5.112" y="5.646" fill="#054354" width="0.768" height="0.768"/>
	<rect x="3.831" y="6.414" fill="#054354" width="0.641" height="0.77"/>
	<rect x="3.831" y="2.189" fill="#054354" width="0.641" height="0.768"/>
	<rect x="2.296" y="2.189" fill="#054354" width="0.768" height="0.768"/>
	<rect x="3.063" y="2.189" fill="#054354" width="0.768" height="0.768"/>
	<rect x="2.296" y="1.422" fill="#054354" width="0.768" height="0.768"/>
	<rect x="3.063" y="0.781" fill="#054354" width="0.768" height="0.641"/>
	<rect x="6.521" y="1.422" fill="#054354" width="0.77" height="0.768"/>
	<rect x="5.88" y="0.781" fill="#054354" width="0.641" height="0.641"/>
	<rect x="6.521" y="0.781" fill="#054354" width="0.77" height="0.641"/>
	<rect x="3.831" y="2.957" fill="#054354" width="0.641" height="0.641"/>
	<rect x="3.831" y="3.598" fill="#054354" width="0.641" height="0.641"/>
	<rect x="2.296" y="3.598" fill="#054354" width="0.768" height="0.641"/>
	<rect x="3.063" y="3.598" fill="#054354" width="0.768" height="0.641"/>
	<rect x="2.296" y="5.646" fill="#054354" width="0.768" height="0.768"/>
	<rect x="3.063" y="5.646" fill="#054354" width="0.768" height="0.768"/>
	<rect x="2.296" y="5.006" fill="#054354" width="0.768" height="0.641"/>
	<rect x="2.296" y="4.238" fill="#054354" width="0.768" height="0.768"/>
	<rect x="2.296" y="6.414" fill="#054354" width="0.768" height="0.77"/>
	<rect x="3.063" y="6.414" fill="#054354" width="0.768" height="0.77"/>
	<rect x="3.831" y="7.184" fill="#054354" width="0.641" height="0.641"/>
	<rect x="3.831" y="7.824" fill="#054354" width="0.641" height="0.768"/>
	<rect x="2.296" y="7.184" fill="#054354" width="0.768" height="0.641"/>
	<rect x="3.063" y="7.184" fill="#054354" width="0.768" height="0.641"/>
	<rect x="2.296" y="7.824" fill="#054354" width="0.768" height="0.768"/>
	<rect x="3.063" y="7.824" fill="#054354" width="0.768" height="0.768"/>
	<rect x="3.831" y="1.422" fill="#054354" width="0.641" height="0.768"/>
	<rect x="4.472" y="1.422" fill="#054354" width="0.641" height="0.768"/>
	<rect x="3.063" y="1.422" fill="#054354" width="0.768" height="0.768"/>
	<rect x="5.88" y="1.422" fill="#054354" width="0.641" height="0.768"/>
	<rect x="5.112" y="1.422" fill="#054354" width="0.768" height="0.768"/>
	<rect x="6.521" y="2.189" fill="#054354" width="0.77" height="0.768"/>
	<rect x="4.472" y="2.189" fill="#054354" width="0.641" height="0.768"/>
	<rect x="5.88" y="2.189" fill="#054354" width="0.641" height="0.768"/>
	<rect x="5.112" y="2.189" fill="#054354" width="0.768" height="0.768"/>
</g>
</svg>
