<?xml version="1.0" encoding="utf-8"?>
<!-- Generator: Adobe Illustrator 16.0.0, SVG Export Plug-In . SVG Version: 6.00 Build 0)  -->
<!DOCTYPE svg PUBLIC "-//W3C//DTD SVG 1.1//EN" "http://www.w3.org/Graphics/SVG/1.1/DTD/svg11.dtd">
<svg version="1.1" id="Layer_1" xmlns="http://www.w3.org/2000/svg" xmlns:xlink="http://www.w3.org/1999/xlink" x="0px" y="0px"
	 width="25px" height="25px" viewBox="-8 0 25 25" enable-background="new -8 0 25 25" xml:space="preserve">
<g id="Git_2_">
	<path fill="#FFFFFF" d="M6.647,13.822c-0.003,0.152-0.007,0.303-0.007,0.453c0,0.796-0.002,1.592,0.004,2.387
		c0,0.122-0.022,0.172-0.16,0.17c-0.969-0.007-1.938-0.007-2.905,0c-0.122,0-0.163-0.035-0.16-0.161c0.007-0.44,0.003-0.88,0-1.317
		c0-0.041,0.05-0.119-0.054-0.122c-0.021,0-0.041,0.003-0.063,0.003c-0.041-0.019-0.078-0.016-0.104,0.028
		c-0.391,0.04-0.783,0.073-1.17-0.024c-0.685-0.174-1.175-0.579-1.478-1.223c-0.195-0.422-0.453-0.812-0.751-1.17
		c-0.094-0.113-0.245-0.158-0.345-0.271c-0.038-0.044-0.101-0.079-0.082-0.139c0.019-0.072,0.098-0.069,0.161-0.075
		c0.629-0.054,1.075,0.245,1.386,0.761c0.286,0.472,0.66,0.821,1.201,0.962c0.383,0.101,0.767,0.078,1.145-0.037
		c0.088-0.029,0.135-0.066,0.144-0.174c0.028-0.389,0.11-0.767,0.38-1.097c-0.104-0.019-0.185-0.038-0.27-0.05
		c-0.666-0.102-1.285-0.33-1.823-0.742c-0.601-0.459-0.975-1.072-1.091-1.823C0.505,9.504,0.542,8.844,0.627,8.188
		c0.066-0.507,0.208-0.988,0.572-1.365c0.129-0.133,0.139-0.238,0.082-0.405c-0.192-0.56-0.138-1.122,0.035-1.683
		C1.348,4.632,1.395,4.6,1.508,4.629C1.932,4.732,2.26,4.98,2.555,5.282C2.699,5.427,2.822,5.59,2.941,5.754
		C2.976,5.801,3,5.826,3.061,5.779c0.227-0.18,0.5-0.236,0.773-0.277C4.626,5.389,5.421,5.386,6.213,5.5
		c0.266,0.037,0.531,0.084,0.752,0.25c0.104,0.079,0.145,0.035,0.201-0.047c0.211-0.309,0.469-0.572,0.77-0.789
		c0.192-0.139,0.406-0.232,0.639-0.289C8.675,4.6,8.716,4.629,8.747,4.719c0.214,0.604,0.245,1.207,0.007,1.811
		c-0.028,0.076-0.048,0.13,0.021,0.195C9.162,7.09,9.345,7.555,9.42,8.067c0.092,0.622,0.145,1.247,0.072,1.88
		c-0.119,1.063-0.66,1.836-1.597,2.342c-0.034-0.003-0.063,0.006-0.075,0.041c-0.025,0.013-0.051,0.025-0.072,0.034
		c-0.082,0.003-0.151,0.038-0.208,0.091c-0.025,0.01-0.054,0.016-0.078,0.025c-0.038-0.01-0.063,0.007-0.079,0.038
		c-0.016,0.003-0.035,0.009-0.051,0.013c-0.125,0.02-0.251,0.034-0.357,0.109c-0.016,0.004-0.035,0.007-0.051,0.01
		c-0.092-0.003-0.182,0.004-0.261,0.061c-0.069,0.009-0.136,0.018-0.204,0.027c-0.054,0.004-0.113-0.003-0.16,0.016
		c-0.051,0.022-0.028,0.054,0.016,0.066l0.003,0.004c0.003,0.043,0.024,0.074,0.065,0.088c0.025,0.049,0.051,0.1,0.076,0.146
		c0.006,0.066,0.02,0.129,0.075,0.174c0.007,0.027,0.013,0.053,0.019,0.082c0.016,0.088,0.016,0.176,0.066,0.254
		c0.003,0.02,0.006,0.038,0.01,0.053c-0.02,0.039-0.01,0.073,0.019,0.104C6.645,13.76,6.645,13.791,6.647,13.822z"/>
	<path fill="#FFFFFF" d="M5.395,12.647c0.106-0.079,0.232-0.091,0.357-0.11C5.637,12.584,5.529,12.66,5.395,12.647z"/>
	<path fill="#FFFFFF" d="M5.083,12.717c0.079-0.057,0.169-0.061,0.261-0.061C5.269,12.72,5.178,12.727,5.083,12.717z"/>
	<path fill="#FFFFFF" d="M5.039,13.575c-0.053-0.076-0.053-0.167-0.066-0.255C5.039,13.393,5.064,13.478,5.039,13.575z"/>
	<path fill="#FFFFFF" d="M5.96,12.455c0.06-0.053,0.126-0.091,0.208-0.091C6.111,12.424,6.045,12.462,5.96,12.455z"/>
	<path fill="#FFFFFF" d="M4.737,12.826c-0.047-0.012-0.066-0.043-0.016-0.066c0.047-0.018,0.106-0.012,0.16-0.015
		C4.848,12.799,4.756,12.752,4.737,12.826z"/>
	<path fill="#FFFFFF" d="M4.954,13.238c-0.057-0.044-0.069-0.107-0.075-0.173C4.945,13.106,4.948,13.172,4.954,13.238z"/>
	<path fill="#FFFFFF" d="M5.067,13.732c-0.028-0.031-0.034-0.063-0.019-0.104C5.086,13.656,5.099,13.691,5.067,13.732z"/>
	<path fill="#FFFFFF" d="M1.625,15.263c0.025-0.044,0.06-0.044,0.104-0.028C1.701,15.266,1.669,15.281,1.625,15.263z"/>
	<path fill="#FFFFFF" d="M4.807,12.918c-0.045-0.013-0.063-0.044-0.066-0.088C4.787,12.84,4.81,12.871,4.807,12.918z"/>
	<path fill="#FFFFFF" d="M6.243,12.33c0.013-0.035,0.044-0.044,0.075-0.041C6.309,12.326,6.287,12.352,6.243,12.33z"/>
	<path fill="#FFFFFF" d="M5.803,12.521c0.016-0.034,0.041-0.047,0.079-0.037C5.869,12.519,5.848,12.541,5.803,12.521z"/>
	<rect x="-3.001" y="19.679" fill="#FFC10D" width="7.323" height="1.616"/>
	
		<rect x="4.574" y="19.806" fill="none" stroke="#FFC10D" stroke-width="0.25" stroke-miterlimit="10" width="7.322" height="1.361"/>
</g>
</svg>
