<?xml version="1.0" encoding="utf-8"?>
<!-- Generator: Adobe Illustrator 16.0.0, SVG Export Plug-In . SVG Version: 6.00 Build 0)  -->
<!DOCTYPE svg PUBLIC "-//W3C//DTD SVG 1.1//EN" "http://www.w3.org/Graphics/SVG/1.1/DTD/svg11.dtd">
<svg version="1.1" id="Layer_1" xmlns="http://www.w3.org/2000/svg" xmlns:xlink="http://www.w3.org/1999/xlink" x="0px" y="0px"
	 width="25px" height="25px" viewBox="-8 0 25 25" enable-background="new -8 0 25 25" xml:space="preserve">
<g id="Ai_4_">
	<g id="Ai_5_">
		<g>
			<path fill="#FFFFFF" d="M0.917,13.648l-1.06,3.461h-2.307L1.447,4.916h2.837l3.991,12.193h-2.4l-1.092-3.461H0.917z
				 M4.409,11.963L3.442,8.971C3.193,8.223,3.006,7.412,2.818,6.693H2.787C2.601,7.412,2.414,8.254,2.195,8.971L1.26,11.963H4.409z"
				/>
			<path fill="#FFFFFF" d="M11.518,5.852c0,0.656-0.498,1.186-1.277,1.186c-0.748,0-1.217-0.529-1.217-1.186
				c0-0.686,0.499-1.215,1.248-1.215C11.02,4.637,11.487,5.166,11.518,5.852z M9.148,17.109V8.316h2.245v8.793H9.148L9.148,17.109z"
				/>
		</g>
	</g>
	<rect x="-2.917" y="19.863" fill="#FFC10D" width="7.323" height="1.616"/>
	<rect x="4.596" y="19.863" fill="#FFC10D" width="7.322" height="1.616"/>
</g>
</svg>
