<?xml version="1.0" encoding="utf-8"?>
<!-- Generator: Adobe Illustrator 16.0.0, SVG Export Plug-In . SVG Version: 6.00 Build 0)  -->
<!DOCTYPE svg PUBLIC "-//W3C//DTD SVG 1.1//EN" "http://www.w3.org/Graphics/SVG/1.1/DTD/svg11.dtd">
<svg version="1.1" id="Layer_1" xmlns="http://www.w3.org/2000/svg" xmlns:xlink="http://www.w3.org/1999/xlink" x="0px" y="0px"
	 width="25px" height="25px" viewBox="-8 0 25 25" enable-background="new -8 0 25 25" xml:space="preserve">
<g id="Id_4_">
	<g id="Id_5_">
		<g>
			<path fill="#FFFFFF" d="M1.415,4.771v11.661h-2.12V4.771H1.415z"/>
			<path fill="#FFFFFF" d="M10.863,4.148v9.915c0,0.873,0.03,1.809,0.062,2.369H9.023l-0.094-1.34H8.898
				C8.399,16.028,7.37,16.62,6.154,16.62c-1.996,0-3.586-1.714-3.586-4.303C2.537,9.512,4.314,7.828,6.342,7.828
				c1.153,0,1.995,0.498,2.369,1.122h0.031V4.148H10.863z M8.742,11.507c0-0.187-0.031-0.374-0.063-0.562
				c-0.188-0.811-0.873-1.496-1.84-1.496c-1.371,0-2.12,1.216-2.12,2.775c0,1.527,0.749,2.65,2.12,2.65
				c0.873,0,1.621-0.593,1.84-1.497c0.063-0.188,0.063-0.405,0.063-0.624V11.507L8.742,11.507z"/>
		</g>
	</g>
	<rect x="-2.314" y="19.235" fill="#FFC10D" width="7.323" height="1.616"/>
	<rect x="5.199" y="19.235" fill="#FFC10D" width="7.322" height="1.616"/>
</g>
</svg>
