<?xml version="1.0" encoding="utf-8"?>
<!-- Generator: Adobe Illustrator 16.0.0, SVG Export Plug-In . SVG Version: 6.00 Build 0)  -->
<!DOCTYPE svg PUBLIC "-//W3C//DTD SVG 1.1//EN" "http://www.w3.org/Graphics/SVG/1.1/DTD/svg11.dtd">
<svg version="1.1" id="Layer_1" xmlns="http://www.w3.org/2000/svg" xmlns:xlink="http://www.w3.org/1999/xlink" x="0px" y="0px"
	 width="9px" height="9.5px" viewBox="0 0 9 9.5" enable-background="new 0 0 9 9.5" xml:space="preserve">
<path fill="#FFC10D" d="M1.237,7.249c0.834,0.516,1.804,0.802,2.761,0.802c0.422,0,0.835-0.044,1.235-0.15
	c0.275-0.077,0.492-0.303,0.492-0.598c0-0.178-0.078-0.339-0.201-0.449h0.051c0.33,0,0.6-0.268,0.6-0.599
	c0-0.33-0.27-0.598-0.6-0.598h0.299c0.332,0,0.6-0.268,0.6-0.598c0-0.331-0.268-0.599-0.6-0.599h1.945
	c0.33,0,0.598-0.268,0.598-0.599c0-0.33-0.268-0.598-0.598-0.598H4.406c-0.165,0-0.299-0.135-0.299-0.3
	c0-0.028,0.005-0.056,0.012-0.082l0.344-0.844c0.041-0.082,0.064-0.173,0.064-0.271c0-0.331-0.268-0.599-0.598-0.599
	c-0.248,0-0.462,0.153-0.554,0.368C2.875,2.51,2.26,3.287,1.237,3.831V7.249L1.237,7.249z"/>
</svg>
