<?xml version="1.0" encoding="utf-8"?>
<!-- Generator: Adobe Illustrator 16.0.0, SVG Export Plug-In . SVG Version: 6.00 Build 0)  -->
<!DOCTYPE svg PUBLIC "-//W3C//DTD SVG 1.1//EN" "http://www.w3.org/Graphics/SVG/1.1/DTD/svg11.dtd">
<svg version="1.1" id="Layer_1" xmlns="http://www.w3.org/2000/svg" xmlns:xlink="http://www.w3.org/1999/xlink" x="0px" y="0px"
	 width="9px" height="9px" viewBox="0 0 9 9" enable-background="new 0 0 9 9" xml:space="preserve">
<g>
	<path fill="#054354" d="M0.584,6.133C0.502,6.051,0.461,5.956,0.465,5.848c0.002-0.105,0.05-0.206,0.144-0.3
		C0.701,5.453,0.802,5.406,0.91,5.402C1.016,5.401,1.113,5.44,1.193,5.521c0.084,0.084,0.123,0.18,0.119,0.287
		C1.311,5.919,1.262,6.018,1.17,6.11c-0.091,0.092-0.191,0.138-0.3,0.142C0.763,6.256,0.668,6.215,0.584,6.133z M3.726,8.118
		L3.18,8.664L1.143,6.627l0.546-0.546L3.726,8.118z"/>
	<path fill="#054354" d="M3.519,5.466L3.255,4.517l0.581-0.583l0.419,1.577l1.643,0.434L5.313,6.529L4.311,6.252l0.277,1.002
		L4.003,7.839L3.569,6.196L1.994,5.777l0.583-0.585L3.519,5.466z"/>
	<path fill="#054354" d="M3.568,3.147c-0.082-0.08-0.123-0.175-0.121-0.281c0.001-0.108,0.05-0.209,0.145-0.304
		c0.093-0.092,0.192-0.14,0.302-0.142C4,2.417,4.095,2.458,4.177,2.538C4.261,2.622,4.3,2.717,4.296,2.825
		c-0.002,0.109-0.05,0.21-0.142,0.302c-0.091,0.091-0.192,0.14-0.3,0.142C3.745,3.272,3.649,3.231,3.568,3.147z M6.708,5.135
		L6.162,5.681L4.126,3.645l0.545-0.548L6.708,5.135z"/>
	<path fill="#054354" d="M8.338,3.505C8.264,3.482,8.184,3.439,8.1,3.378c0.015,0.278-0.082,0.523-0.295,0.734
		C7.607,4.312,7.384,4.419,7.137,4.437c-0.246,0.015-0.459-0.065-0.634-0.24C6.287,3.979,6.201,3.734,6.246,3.458
		c0.045-0.275,0.218-0.565,0.52-0.869l0.25-0.25L6.9,2.224C6.805,2.129,6.706,2.078,6.6,2.07C6.496,2.062,6.391,2.109,6.287,2.214
		C6.195,2.306,6.146,2.398,6.138,2.493C6.129,2.591,6.164,2.678,6.24,2.754L5.696,3.298C5.579,3.179,5.505,3.033,5.479,2.86
		c-0.027-0.173-0.006-0.354,0.07-0.544c0.076-0.189,0.197-0.368,0.363-0.534C6.164,1.53,6.427,1.395,6.7,1.374
		c0.272-0.022,0.523,0.082,0.753,0.312l0.883,0.883C8.529,2.76,8.703,2.877,8.854,2.926l0.031,0.031L8.338,3.505z M7.509,3.577
		c0.08-0.08,0.136-0.171,0.169-0.275c0.03-0.104,0.034-0.201,0.006-0.294l-0.35-0.351L7.131,2.86
		C6.859,3.133,6.807,3.373,6.979,3.577l0.029,0.034c0.066,0.068,0.146,0.101,0.24,0.097C7.338,3.704,7.425,3.661,7.509,3.577z"/>
</g>
</svg>
