<?xml version="1.0" encoding="utf-8"?>
<!-- Generator: Adobe Illustrator 16.0.0, SVG Export Plug-In . SVG Version: 6.00 Build 0)  -->
<!DOCTYPE svg PUBLIC "-//W3C//DTD SVG 1.1//EN" "http://www.w3.org/Graphics/SVG/1.1/DTD/svg11.dtd">
<svg version="1.1" id="Layer_1" xmlns="http://www.w3.org/2000/svg" xmlns:xlink="http://www.w3.org/1999/xlink" x="0px" y="0px"
	 width="25px" height="25px" viewBox="-8 0 25 25" enable-background="new -8 0 25 25" xml:space="preserve">
<g id="JS_4_">
	<rect x="-3.075" y="19.323" fill="#FFC10D" width="7.323" height="1.616"/>
	<rect x="4.5" y="19.45" fill="none" stroke="#FFC10D" stroke-width="0.25" stroke-miterlimit="10" width="7.322" height="1.361"/>
	<path id="JS_5_" fill="#FFFFFF" d="M2.586,11.811c0,3.396-1.636,4.6-4.229,4.6c-0.649,0-1.451-0.094-1.976-0.279l0.309-2.191
		c0.371,0.123,0.865,0.219,1.389,0.219c1.143,0,1.853-0.529,1.853-2.348L-0.1,4.246h2.686V11.811z M7.805,16.41
		c-1.359,0-2.717-0.369-3.397-0.742l0.556-2.221c0.71,0.369,1.853,0.738,2.996,0.738c1.234,0,1.883-0.523,1.883-1.326
		c0-0.738-0.557-1.172-2.008-1.668c-1.975-0.707-3.303-1.822-3.303-3.58c0-2.008,1.729-3.551,4.538-3.551
		c1.358,0,2.347,0.277,3.058,0.619l-0.619,2.16c-0.462-0.217-1.326-0.555-2.469-0.555c-1.174,0-1.73,0.555-1.73,1.143
		c0,0.77,0.65,1.109,2.224,1.697c2.101,0.771,3.087,1.883,3.087,3.58C12.619,14.711,11.107,16.41,7.805,16.41z"/>
</g>
</svg>
