<?xml version="1.0" encoding="utf-8"?>
<!-- Generator: Adobe Illustrator 16.0.0, SVG Export Plug-In . SVG Version: 6.00 Build 0)  -->
<!DOCTYPE svg PUBLIC "-//W3C//DTD SVG 1.1//EN" "http://www.w3.org/Graphics/SVG/1.1/DTD/svg11.dtd">
<svg version="1.1" id="Layer_1" xmlns="http://www.w3.org/2000/svg" xmlns:xlink="http://www.w3.org/1999/xlink" x="0px" y="0px"
	 width="25px" height="25px" viewBox="0 0 25 25" enable-background="new 0 0 25 25" xml:space="preserve">
<g id="JQuery_3_">
	<g id="Layer_6_4_">
		<g>
			<g>
				<path fill="#FFFFFF" d="M7.913,6.906c-1.104,1.591-0.975,3.67-0.127,5.366c0.021,0.044,0.042,0.085,0.064,0.128
					c0.021,0.022,0.021,0.043,0.041,0.084c0,0.023,0.021,0.023,0.021,0.043c0.021,0.022,0.021,0.043,0.043,0.086
					s0.064,0.084,0.085,0.147c0.021,0.022,0.021,0.042,0.042,0.084c0.021,0.044,0.064,0.108,0.085,0.149
					c0.021,0.023,0.021,0.042,0.042,0.064c0.042,0.063,0.085,0.127,0.127,0.188l0,0l0.021,0.023c0.041,0.064,0.084,0.107,0.127,0.17
					c0.021,0.021,0.021,0.043,0.041,0.063c0.043,0.045,0.086,0.086,0.105,0.148c0.022,0.021,0.022,0.043,0.043,0.043
					c0.043,0.064,0.105,0.127,0.17,0.191l0,0l0,0c0.063,0.063,0.105,0.105,0.17,0.17c0.021,0.02,0.041,0.043,0.041,0.043
					c0.043,0.041,0.086,0.084,0.127,0.129c0.021,0.02,0.043,0.039,0.063,0.039c0.063,0.063,0.127,0.107,0.169,0.172l0,0l0.021,0.021
					c0.063,0.041,0.105,0.084,0.168,0.125c0.021,0.021,0.043,0.045,0.064,0.063c0.042,0.043,0.084,0.064,0.126,0.105
					c0.022,0.021,0.042,0.045,0.065,0.063c0.041,0.045,0.104,0.064,0.147,0.107c0.021,0.02,0.042,0.02,0.063,0.043
					c0,0,0,0,0.021,0.02c0.041,0.045,0.106,0.064,0.147,0.107c0.022,0.021,0.042,0.021,0.063,0.043
					c0.084,0.041,0.148,0.086,0.233,0.146c0.021,0.021,0.042,0.021,0.063,0.043c0.063,0.043,0.104,0.064,0.17,0.105
					c0.021,0.021,0.063,0.045,0.084,0.045c0.043,0.018,0.086,0.041,0.129,0.063c0,0,0.02,0,0.02,0.021
					c0.021,0,0.043,0.02,0.043,0.02c0.063,0.021,0.127,0.066,0.191,0.086c0.021,0,0.021,0.021,0.042,0.021
					c0.085,0.041,0.147,0.063,0.233,0.084c0.021,0,0.041,0.02,0.063,0.02c0.063,0.023,0.148,0.066,0.212,0.086h0.021
					c0.086,0.021,0.17,0.064,0.232,0.086c0.021,0,0.043,0.021,0.064,0.021c0.084,0.021,0.17,0.063,0.256,0.063
					c5.365,0.977,6.934-3.224,6.934-3.224c-1.313,1.72-3.646,2.164-5.832,1.656c-0.084-0.02-0.17-0.043-0.255-0.064
					c-0.021,0-0.042-0.02-0.063-0.02c-0.086-0.021-0.148-0.043-0.232-0.086c-0.021,0-0.021,0-0.043-0.021
					c-0.064-0.021-0.148-0.043-0.212-0.084c-0.022,0-0.042-0.021-0.063-0.021c-0.085-0.021-0.148-0.064-0.231-0.084
					c-0.023,0-0.023-0.021-0.044-0.021c-0.063-0.021-0.127-0.063-0.19-0.086c-0.021,0-0.043-0.021-0.063-0.021
					c-0.041-0.02-0.106-0.041-0.148-0.084c-0.041-0.021-0.063-0.041-0.105-0.041c-0.063-0.043-0.127-0.064-0.17-0.105
					c-0.021-0.021-0.041-0.021-0.063-0.043c-0.085-0.043-0.148-0.084-0.232-0.146c-0.021-0.023-0.043-0.023-0.063-0.045
					c-0.063-0.041-0.106-0.063-0.17-0.104c-0.021-0.021-0.042-0.021-0.042-0.045c-0.043-0.041-0.106-0.063-0.148-0.107
					c-0.021-0.018-0.043-0.043-0.064-0.043c-0.041-0.041-0.084-0.061-0.147-0.102c-0.021-0.025-0.043-0.045-0.063-0.045
					c-0.063-0.041-0.105-0.105-0.17-0.15c0,0-0.021,0-0.021-0.021c-0.063-0.063-0.127-0.104-0.189-0.168
					c-0.022-0.022-0.043-0.043-0.043-0.043c-0.043-0.043-0.086-0.086-0.127-0.127c-0.021-0.022-0.043-0.042-0.043-0.042
					c-0.063-0.064-0.105-0.107-0.17-0.171l0,0c-0.063-0.064-0.105-0.126-0.17-0.19C9.69,12.122,9.69,12.102,9.67,12.102
					c-0.042-0.045-0.085-0.108-0.127-0.149c-0.021-0.022-0.021-0.042-0.042-0.063c-0.043-0.064-0.085-0.129-0.127-0.192
					c-1.227-1.672-1.652-3.965-0.677-5.853"/>
				<path fill="#FFFFFF" d="M11.349,5.548c-0.806,1.167-0.764,2.696-0.127,3.925c0.105,0.214,0.232,0.403,0.36,0.595
					c0.128,0.169,0.255,0.381,0.403,0.508c0.063,0.063,0.127,0.128,0.189,0.191c0.021,0.021,0.021,0.021,0.043,0.042
					c0.063,0.063,0.127,0.106,0.19,0.17l0,0l0,0c0.063,0.063,0.147,0.127,0.213,0.169c0.021,0.02,0.042,0.02,0.042,0.044
					c0.063,0.062,0.146,0.105,0.232,0.17l0,0c0.041,0.021,0.063,0.041,0.105,0.062c0.021,0.021,0.043,0.021,0.043,0.043
					c0.063,0.043,0.105,0.063,0.169,0.106c0,0,0.021,0,0.021,0.022c0.043,0.019,0.106,0.063,0.149,0.082
					c0.021,0,0.041,0.022,0.041,0.022c0.044,0.022,0.064,0.043,0.106,0.063c0,0,0,0,0.021,0c0.063,0.043,0.148,0.064,0.213,0.106
					c0.021,0,0.021,0.022,0.043,0.022c0.063,0.021,0.127,0.041,0.17,0.063c0.021,0,0.041,0.021,0.084,0.021
					c0.063,0.021,0.104,0.044,0.17,0.064c0.021,0,0.043,0.021,0.063,0.021c0.085,0.021,0.148,0.064,0.232,0.064
					c4.158,0.678,5.111-2.503,5.111-2.503c-0.869,1.251-2.545,1.845-4.326,1.379c-0.086-0.021-0.147-0.044-0.233-0.064
					c-0.021,0-0.042-0.021-0.063-0.021c-0.063-0.021-0.104-0.043-0.17-0.063c-0.021,0-0.043-0.023-0.063-0.023
					c-0.061-0.018-0.125-0.038-0.167-0.06c-0.021,0-0.042-0.021-0.042-0.021c-0.063-0.042-0.148-0.063-0.213-0.106
					c-0.043-0.021-0.063-0.041-0.105-0.063c-0.021-0.02-0.043-0.02-0.064-0.041c-0.041-0.022-0.084-0.045-0.127-0.086
					c-0.021,0-0.021-0.021-0.043-0.021c-0.063-0.044-0.104-0.063-0.168-0.107c-0.021-0.02-0.043-0.02-0.043-0.042
					c-0.043-0.022-0.063-0.042-0.105-0.063c-0.085-0.042-0.148-0.105-0.232-0.17c-0.021-0.02-0.043-0.02-0.043-0.042
					c-0.787-0.617-1.4-1.464-1.699-2.419c-0.316-0.997-0.232-2.099,0.299-3.011"/>
				<path fill="#FFFFFF" d="M14.255,4.552c-0.467,0.7-0.531,1.572-0.191,2.334c0.34,0.825,1.061,1.463,1.888,1.76
					c0.043,0.021,0.063,0.021,0.106,0.042c0.021,0,0.021,0,0.041,0.021c0.043,0.021,0.106,0.044,0.149,0.044
					c2.289,0.444,2.903-1.167,3.074-1.421c-0.552,0.784-1.464,0.975-2.587,0.7c-0.086-0.021-0.19-0.065-0.276-0.085
					c-0.104-0.042-0.21-0.085-0.315-0.128c-0.192-0.107-0.383-0.211-0.574-0.338c-0.996-0.766-1.633-2.207-0.975-3.395"/>
			</g>
		</g>
	</g>
	<rect x="5.173" y="19.016" fill="#FFC10D" width="7.323" height="1.615"/>
	
		<rect x="12.749" y="19.143" fill="none" stroke="#FFC10D" stroke-width="0.25" stroke-miterlimit="10" width="7.322" height="1.361"/>
</g>
</svg>
