<?xml version="1.0" encoding="utf-8"?>
<!-- Generator: Adobe Illustrator 16.0.0, SVG Export Plug-In . SVG Version: 6.00 Build 0)  -->
<!DOCTYPE svg PUBLIC "-//W3C//DTD SVG 1.1//EN" "http://www.w3.org/Graphics/SVG/1.1/DTD/svg11.dtd">
<svg version="1.1" id="Layer_1" xmlns="http://www.w3.org/2000/svg" xmlns:xlink="http://www.w3.org/1999/xlink" x="0px" y="0px"
	 width="9px" height="9px" viewBox="0 0 9 9" enable-background="new 0 0 9 9" xml:space="preserve">
<g>
	<g>
		<path fill-rule="evenodd" clip-rule="evenodd" fill="#054354" d="M1.727,4.617c0-1.531,1.242-2.773,2.773-2.773
			c0.643,0,1.227,0.228,1.696,0.594l0.789-0.789C6.31,1.083,5.45,0.729,4.5,0.729c-2.146,0-3.889,1.742-3.889,3.889
			c0,0.95,0.354,1.81,0.921,2.485l0.788-0.789C1.954,5.844,1.727,5.26,1.727,4.617z M7.449,2.109L6.66,2.898
			c0.378,0.474,0.613,1.066,0.613,1.719c0,1.531-1.242,2.773-2.773,2.773c-0.653,0-1.245-0.235-1.719-0.613L1.993,7.566
			C2.671,8.144,3.54,8.506,4.5,8.506c2.148,0,3.889-1.742,3.889-3.889C8.389,3.656,8.027,2.788,7.449,2.109z"/>
	</g>
</g>
</svg>
