<?xml version="1.0" encoding="utf-8"?>
<!-- Generator: Adobe Illustrator 16.0.0, SVG Export Plug-In . SVG Version: 6.00 Build 0)  -->
<!DOCTYPE svg PUBLIC "-//W3C//DTD SVG 1.1//EN" "http://www.w3.org/Graphics/SVG/1.1/DTD/svg11.dtd">
<svg version="1.1" id="Layer_1" xmlns="http://www.w3.org/2000/svg" xmlns:xlink="http://www.w3.org/1999/xlink" x="0px" y="0px"
	 width="9px" height="9.5px" viewBox="0 0 9 9.5" enable-background="new 0 0 9 9.5" xml:space="preserve">
<g id="black">
	<g id="slice" transform="translate(-600.000000, 0.000000)">
	</g>
	<g id="linkedin" transform="translate(16.000000, 17.000000)">
		<path fill="#FFC10D" d="M-13.475-8.854v-4.892h-1.512v4.892H-13.475z M-13.475-15.48c-0.01-0.438-0.301-0.771-0.775-0.771
			s-0.784,0.333-0.784,0.771c0,0.429,0.301,0.771,0.766,0.771h0.009C-13.776-14.708-13.475-15.051-13.475-15.48z M-11.008-8.854
			v-2.788c0-0.148,0.012-0.297,0.055-0.404c0.121-0.299,0.393-0.606,0.852-0.606c0.6,0,0.977,0.341,0.977,1.011v2.788h1.521v-2.862
			c0-1.533-0.818-2.246-1.91-2.246c-0.895,0-1.287,0.5-1.506,0.841l0.012-0.654h-1.519c0.021,0.468,0,4.922,0,4.922H-11.008z"/>
	</g>
</g>
</svg>
