<?xml version="1.0" encoding="utf-8"?>
<!-- Generator: Adobe Illustrator 16.0.0, SVG Export Plug-In . SVG Version: 6.00 Build 0)  -->
<!DOCTYPE svg PUBLIC "-//W3C//DTD SVG 1.1//EN" "http://www.w3.org/Graphics/SVG/1.1/DTD/svg11.dtd">
<svg version="1.1" id="Layer_1" xmlns="http://www.w3.org/2000/svg" xmlns:xlink="http://www.w3.org/1999/xlink" x="0px" y="0px"
	 width="9px" height="9px" viewBox="0 0 9 9" enable-background="new 0 0 9 9" xml:space="preserve">
<path fill="#FFC10D" d="M7.769,5.414L7.132,4.94c0.001-0.01,0.002-0.02,0.004-0.028C7.137,4.908,7.137,4.903,7.138,4.9
	c0.006-0.042,0.012-0.083,0.016-0.124c0-0.002,0-0.005,0-0.007c0.005-0.043,0.008-0.086,0.01-0.129c0-0.002,0.001-0.004,0.001-0.006
	c0.002-0.043,0.003-0.085,0.003-0.128c0-0.002,0-0.004,0-0.006c0-0.003,0-0.005,0-0.008c0-0.01,0-0.019,0-0.027
	c0-0.002,0-0.004,0-0.006c0-0.019,0-0.037-0.002-0.055c0-0.013,0-0.023-0.001-0.035C7.163,4.347,7.162,4.325,7.16,4.302
	c0-0.003-0.001-0.005-0.001-0.008c0-0.007-0.001-0.013-0.002-0.02c0-0.013-0.002-0.024-0.003-0.036c0-0.003-0.001-0.005-0.001-0.008
	c0-0.002,0-0.003,0-0.005C7.152,4.22,7.151,4.214,7.151,4.208C7.15,4.2,7.149,4.193,7.149,4.186
	C7.148,4.182,7.147,4.178,7.147,4.174c0-0.005-0.002-0.009-0.002-0.013C7.142,4.13,7.138,4.099,7.132,4.069c0-0.003,0-0.006,0-0.009
	L7.77,3.586C7.921,3.5,7.973,3.306,7.886,3.155L7.358,2.241C7.271,2.089,7.077,2.038,6.926,2.125L6.196,2.441
	c-0.004-0.004-0.008-0.007-0.013-0.01C6.182,2.43,6.181,2.428,6.179,2.426c-0.01-0.007-0.02-0.015-0.029-0.021
	C6.14,2.396,6.128,2.388,6.118,2.38c-0.009-0.007-0.018-0.014-0.025-0.02C6.088,2.358,6.084,2.354,6.08,2.351
	c-0.007-0.004-0.015-0.01-0.021-0.015C6.056,2.333,6.052,2.331,6.048,2.328C6.037,2.321,6.026,2.314,6.017,2.306
	C6.015,2.305,6.013,2.303,6.01,2.301C6.005,2.298,6.001,2.295,5.997,2.292c-0.016-0.01-0.029-0.02-0.045-0.029
	C5.95,2.262,5.948,2.261,5.947,2.26C5.923,2.244,5.899,2.229,5.874,2.214C5.868,2.21,5.862,2.207,5.855,2.203
	C5.802,2.171,5.748,2.142,5.692,2.115c0-0.001-0.002-0.001-0.002-0.002C5.618,2.077,5.545,2.044,5.47,2.014
	c-0.002,0-0.004,0-0.006-0.002c-0.01-0.003-0.02-0.007-0.029-0.011l-0.092-0.79c0-0.175-0.141-0.316-0.316-0.316H3.972
	c-0.174,0-0.316,0.142-0.316,0.316l-0.091,0.79C3.561,2.003,3.556,2.004,3.552,2.006C3.547,2.008,3.542,2.01,3.537,2.012
	C3.508,2.023,3.479,2.035,3.45,2.047C3.445,2.049,3.44,2.052,3.435,2.054C3.409,2.066,3.384,2.077,3.358,2.089
	C3.355,2.09,3.353,2.091,3.35,2.093C3.347,2.094,3.343,2.096,3.34,2.098C3.33,2.102,3.321,2.107,3.312,2.112
	C3.29,2.123,3.269,2.133,3.248,2.144c-0.015,0.009-0.03,0.017-0.046,0.025c-0.01,0.005-0.02,0.011-0.028,0.016
	c-0.001,0-0.001,0.001-0.003,0.002C3.17,2.188,3.168,2.188,3.166,2.189C3.163,2.191,3.16,2.193,3.157,2.195
	C3.122,2.215,3.089,2.237,3.055,2.257C3.051,2.26,3.048,2.262,3.044,2.265S3.036,2.27,3.032,2.273
	C3.03,2.274,3.029,2.274,3.028,2.275C2.999,2.293,2.972,2.313,2.943,2.333C2.939,2.336,2.936,2.339,2.932,2.342
	c-0.032,0.022-0.063,0.046-0.093,0.07C2.833,2.417,2.828,2.42,2.823,2.425C2.816,2.43,2.81,2.435,2.803,2.441L2.074,2.125
	C1.923,2.039,1.729,2.09,1.642,2.241L1.115,3.155C1.027,3.306,1.079,3.5,1.23,3.587L1.868,4.06C1.866,4.068,1.865,4.076,1.864,4.083
	C1.863,4.092,1.862,4.101,1.86,4.11C1.855,4.146,1.85,4.182,1.847,4.218C1.846,4.225,1.845,4.233,1.844,4.24
	C1.841,4.272,1.838,4.305,1.836,4.337c0,0.002,0,0.005,0,0.008c0,0.002,0,0.005,0,0.008c0,0.007,0,0.014-0.001,0.021
	C1.833,4.412,1.832,4.449,1.832,4.486c0,0.005,0,0.01,0,0.015c0,0.006,0,0.012,0,0.018c0,0.004,0,0.009,0,0.012
	c0,0.005,0,0.009,0,0.014c0,0.016,0,0.03,0.001,0.045c0,0.021,0.001,0.04,0.002,0.06c0.001,0.017,0.001,0.032,0.003,0.05
	c0,0.001,0,0.004,0,0.006c0,0.009,0.001,0.017,0.002,0.024C1.842,4.739,1.843,4.75,1.844,4.759c0.002,0.023,0.004,0.048,0.007,0.07
	v0.001C1.856,4.866,1.861,4.9,1.867,4.934c0,0.002,0,0.004,0.001,0.006L1.23,5.414C1.079,5.5,1.027,5.695,1.115,5.846L1.642,6.76
	c0.087,0.15,0.281,0.203,0.432,0.115l0.729-0.314c0.005,0.004,0.011,0.008,0.015,0.012c0.002,0,0.002,0.002,0.004,0.002l0,0
	c0.008,0.006,0.016,0.012,0.023,0.02c0.012,0.008,0.024,0.02,0.037,0.029c0.008,0.004,0.016,0.01,0.022,0.016
	c0.01,0.008,0.019,0.014,0.029,0.021c0.001,0,0.002,0.002,0.003,0.002C2.94,6.666,2.946,6.67,2.95,6.672
	c0.012,0.01,0.023,0.018,0.035,0.025c0,0,0.002,0,0.002,0.002c0.005,0.002,0.01,0.006,0.014,0.008
	c0.04,0.027,0.081,0.055,0.123,0.08c0.007,0.004,0.014,0.008,0.021,0.012C3.198,6.83,3.251,6.859,3.305,6.887
	c0.002,0,0.004,0.002,0.006,0.002C3.394,6.93,3.478,6.967,3.563,7l0.092,0.789c0,0.174,0.142,0.316,0.316,0.316h1.055
	c0.175,0,0.316-0.143,0.316-0.316L5.435,7c0.004-0.002,0.008-0.004,0.014-0.006C5.452,6.992,5.456,6.99,5.461,6.988
	C5.49,6.979,5.52,6.967,5.548,6.953C5.554,6.951,5.56,6.949,5.565,6.945c0.025-0.01,0.051-0.021,0.076-0.033
	C5.645,6.91,5.647,6.908,5.649,6.908l0,0c0.003-0.002,0.006-0.004,0.009-0.004c0.01-0.006,0.02-0.01,0.03-0.016
	c0.021-0.01,0.041-0.021,0.063-0.031c0.016-0.01,0.031-0.018,0.047-0.025c0.008-0.006,0.016-0.01,0.023-0.014
	c0.002-0.002,0.006-0.004,0.008-0.006c0.002,0,0.002,0,0.004-0.002c0.002,0,0.004-0.002,0.007-0.004
	c0.036-0.02,0.071-0.043,0.106-0.064C5.948,6.74,5.951,6.738,5.954,6.736C5.96,6.734,5.965,6.73,5.97,6.727
	c0.029-0.02,0.059-0.039,0.088-0.061C6.061,6.664,6.063,6.662,6.066,6.66c0.032-0.023,0.064-0.049,0.096-0.072
	C6.167,6.584,6.171,6.58,6.175,6.576c0.008-0.006,0.015-0.01,0.021-0.016l0.729,0.314C7.076,6.963,7.271,6.91,7.356,6.76
	l0.527-0.914C7.972,5.695,7.921,5.5,7.769,5.414z M4.5,5.602c-0.608,0-1.101-0.494-1.101-1.101c0-0.608,0.492-1.102,1.101-1.102
	S5.601,3.892,5.601,4.5C5.601,5.107,5.108,5.602,4.5,5.602z"/>
</svg>
