<?xml version="1.0" encoding="utf-8"?>
<!-- Generator: Adobe Illustrator 16.0.0, SVG Export Plug-In . SVG Version: 6.00 Build 0)  -->
<!DOCTYPE svg PUBLIC "-//W3C//DTD SVG 1.1//EN" "http://www.w3.org/Graphics/SVG/1.1/DTD/svg11.dtd">
<svg version="1.1" id="Layer_1" xmlns="http://www.w3.org/2000/svg" xmlns:xlink="http://www.w3.org/1999/xlink" x="0px" y="0px"
	 width="9px" height="9px" viewBox="0 0 9 9" enable-background="new 0 0 9 9" xml:space="preserve">
<path fill="#054354" d="M6.99,0.915C6.426,0.542,5.693,0.331,5.495,0.639L5.461,0.694L5.439,0.728L2.094,5.922l0.001,0.002
	C2.086,5.938,2.08,5.953,2.078,5.973L1.913,8.799L4.4,7.508C4.417,7.5,4.429,7.486,4.439,7.471v0.002l3.346-5.195l0.021-0.034
	L7.84,2.189C8.039,1.882,7.554,1.287,6.99,0.915z M6.878,1.089c0.473,0.313,0.73,0.666,0.789,0.86L5.781,0.704
	C5.982,0.679,6.404,0.777,6.878,1.089z M2.443,5.762l2.425-3.766l0.37,0.245L2.814,6.006l0,0C2.748,6.107,2.609,6.139,2.509,6.072
	C2.406,6.004,2.377,5.863,2.443,5.762L2.443,5.762z M2.925,8.039L2.191,7.557l0.083-1.432c0.032,0.047,0.072,0.088,0.122,0.121
	c0.109,0.072,0.239,0.086,0.355,0.049C2.766,6.418,2.83,6.533,2.939,6.604c0.109,0.072,0.239,0.086,0.354,0.051
	c0.015,0.123,0.079,0.236,0.188,0.309c0.11,0.072,0.239,0.086,0.355,0.051c0.017,0.123,0.08,0.236,0.189,0.309
	c0.049,0.033,0.103,0.053,0.157,0.064L2.925,8.039z M2.987,6.119l2.424-3.764L5.782,2.6L3.357,6.365
	C3.291,6.469,3.154,6.498,3.052,6.43C2.949,6.363,2.921,6.223,2.987,6.119L2.987,6.119z M3.53,6.479l2.425-3.764l0.369,0.245
	L3.9,6.723C3.834,6.826,3.697,6.857,3.595,6.789C3.492,6.723,3.463,6.582,3.53,6.479z M4.445,7.082
	C4.377,7.186,4.24,7.217,4.138,7.148C4.036,7.08,4.007,6.941,4.074,6.838l0,0l2.422-3.766l0.373,0.246L4.445,7.082z M6.981,3.143
	L4.98,1.821l0.064-0.1l2,1.322L6.981,3.143z M7.157,2.868L5.156,1.545l0.455-0.704l2,1.322L7.157,2.868z"/>
</svg>
