<?xml version="1.0" encoding="utf-8"?>
<!-- Generator: Adobe Illustrator 16.0.0, SVG Export Plug-In . SVG Version: 6.00 Build 0)  -->
<!DOCTYPE svg PUBLIC "-//W3C//DTD SVG 1.1//EN" "http://www.w3.org/Graphics/SVG/1.1/DTD/svg11.dtd">
<svg version="1.1" id="Layer_1" xmlns="http://www.w3.org/2000/svg" xmlns:xlink="http://www.w3.org/1999/xlink" x="0px" y="0px"
	 width="9px" height="9px" viewBox="0 0 9 9" enable-background="new 0 0 9 9" xml:space="preserve">
<g>
	<g>
		<path fill-rule="evenodd" clip-rule="evenodd" fill="#054354" d="M7.206,2.109C6.817,1.166,5.819,0.848,5.819,0.848
			C4.304,0.473,2.845,0.979,2.845,0.979C1.978,1.398,1.921,2.91,1.921,2.91c0.01,0.348,0.227,0.379,0.227,0.379
			c0.611-0.058,0.731-0.146,0.754-0.185L1.726,7.568C1.573,8.076,2.104,8.293,2.104,8.293c0.207,0.098,1.127,0.131,1.127,0.131
			c0.367-0.076,0.465-0.467,0.465-0.467l0.51-2.102c0,0.629,0.672,0.445,0.672,0.445c1.43-0.477,1.852-1.191,1.852-1.191
			C7.866,3.475,7.206,2.109,7.206,2.109z M4.64,4.395c0.162-0.51,0.217-0.92,0.129-1.213C4.683,2.889,3.794,2.639,3.794,2.639
			c1.637-0.432,1.744,0.607,1.744,0.607C5.462,4.166,4.64,4.395,4.64,4.395z"/>
	</g>
</g>
</svg>
