<?xml version="1.0" encoding="utf-8"?>
<!-- Generator: Adobe Illustrator 16.0.0, SVG Export Plug-In . SVG Version: 6.00 Build 0)  -->
<!DOCTYPE svg PUBLIC "-//W3C//DTD SVG 1.1//EN" "http://www.w3.org/Graphics/SVG/1.1/DTD/svg11.dtd">
<svg version="1.1" id="Layer_1" xmlns="http://www.w3.org/2000/svg" xmlns:xlink="http://www.w3.org/1999/xlink" x="0px" y="0px"
	 width="9px" height="9px" viewBox="0 0 9 9" enable-background="new 0 0 9 9" xml:space="preserve">
<path fill="#FFC10D" d="M1.849,3.907C2.56,5.301,3.7,6.443,5.099,7.152l1.086-1.086c0.135-0.137,0.33-0.176,0.5-0.121
	c0.552,0.182,1.146,0.281,1.76,0.281c0.273,0,0.494,0.219,0.494,0.492v1.727c0,0.273-0.221,0.492-0.494,0.492
	c-4.63,0-8.383-3.752-8.383-8.382c0-0.273,0.222-0.493,0.493-0.493h1.726c0.273,0,0.494,0.22,0.494,0.493
	c0,0.614,0.098,1.208,0.281,1.761c0.054,0.17,0.014,0.365-0.121,0.5L1.849,3.907z"/>
</svg>
