<?xml version="1.0" encoding="utf-8"?>
<!-- Generator: Adobe Illustrator 16.0.0, SVG Export Plug-In . SVG Version: 6.00 Build 0)  -->
<!DOCTYPE svg PUBLIC "-//W3C//DTD SVG 1.1//EN" "http://www.w3.org/Graphics/SVG/1.1/DTD/svg11.dtd">
<svg version="1.1" id="Layer_1" xmlns="http://www.w3.org/2000/svg" xmlns:xlink="http://www.w3.org/1999/xlink" x="0px" y="0px"
	 width="25px" height="25px" viewBox="-8 0 25 25" enable-background="new -8 0 25 25" xml:space="preserve">
<g id="Ps_4_">
	<g id="Ps_5_">
		<g>
			<path fill="#FFFFFF" d="M-2.98,4.561c0.8-0.153,1.877-0.247,3.354-0.247c1.601,0,2.801,0.34,3.57,0.986
				c0.708,0.584,1.169,1.538,1.169,2.676c0,1.141-0.369,2.095-1.046,2.74c-0.861,0.861-2.246,1.293-3.816,1.293
				c-0.4,0-0.8-0.031-1.078-0.063v4.525H-2.98V4.561L-2.98,4.561z M-0.795,10.163c0.276,0.061,0.615,0.091,1.077,0.091
				c1.631,0,2.646-0.8,2.646-2.216c0-1.355-0.922-2.063-2.461-2.063c-0.615,0-1.046,0.063-1.261,0.093V10.163z"/>
			<path fill="#FFFFFF" d="M6.1,14.44c0.492,0.307,1.445,0.615,2.246,0.615c0.954,0,1.385-0.4,1.385-0.955
				c0-0.584-0.369-0.893-1.415-1.262c-1.694-0.583-2.401-1.507-2.401-2.523c0-1.538,1.262-2.738,3.293-2.738
				c0.955,0,1.816,0.246,2.309,0.523L11.085,9.67c-0.369-0.216-1.077-0.493-1.847-0.493c-0.8,0-1.2,0.369-1.2,0.924
				c0,0.554,0.4,0.831,1.509,1.2c1.568,0.585,2.309,1.386,2.309,2.679c0,1.568-1.232,2.707-3.54,2.707
				c-1.046,0-2.001-0.246-2.647-0.615L6.1,14.44z"/>
		</g>
	</g>
	<rect x="-2.98" y="19.384" fill="#FFC10D" width="7.322" height="1.616"/>
	<rect x="4.532" y="19.384" fill="#FFC10D" width="7.323" height="1.616"/>
</g>
</svg>
