<?xml version="1.0" encoding="utf-8"?>
<!-- Generator: Adobe Illustrator 16.0.0, SVG Export Plug-In . SVG Version: 6.00 Build 0)  -->
<!DOCTYPE svg PUBLIC "-//W3C//DTD SVG 1.1//EN" "http://www.w3.org/Graphics/SVG/1.1/DTD/svg11.dtd">
<svg version="1.1" id="Layer_1" xmlns="http://www.w3.org/2000/svg" xmlns:xlink="http://www.w3.org/1999/xlink" x="0px" y="0px"
	 width="9px" height="9px" viewBox="0 0 9 9" enable-background="new 0 0 9 9" xml:space="preserve">
<g>
	<path fill="#054354" d="M1.13,6.027l1.988-0.303c0.086,0.385,0.258,0.678,0.516,0.879C3.892,6.803,4.255,6.902,4.72,6.902
		c0.512,0,0.898-0.094,1.156-0.281C6.05,6.488,6.138,6.313,6.138,6.092c0-0.15-0.047-0.275-0.143-0.373
		C5.897,5.623,5.677,5.535,5.333,5.457C3.735,5.104,2.722,4.781,2.294,4.49C1.702,4.086,1.405,3.523,1.405,2.805
		c0-0.648,0.256-1.193,0.768-1.635c0.514-0.443,1.309-0.664,2.385-0.664c1.025,0,1.787,0.168,2.285,0.502s0.84,0.826,1.029,1.479
		L6.003,2.834c-0.08-0.291-0.232-0.516-0.455-0.67C5.325,2.008,5.007,1.932,4.593,1.932c-0.521,0-0.896,0.072-1.121,0.217
		c-0.15,0.104-0.227,0.238-0.227,0.402c0,0.141,0.066,0.262,0.197,0.359c0.18,0.133,0.797,0.318,1.852,0.559
		C6.349,3.707,7.087,4.002,7.505,4.35c0.414,0.354,0.621,0.844,0.621,1.473c0,0.688-0.287,1.277-0.861,1.77
		C6.69,8.088,5.843,8.334,4.72,8.334c-1.02,0-1.828-0.207-2.424-0.621C1.702,7.299,1.313,6.736,1.13,6.027z"/>
</g>
</svg>
