<?xml version="1.0" encoding="utf-8"?>
<!-- Generator: Adobe Illustrator 16.0.0, SVG Export Plug-In . SVG Version: 6.00 Build 0)  -->
<!DOCTYPE svg PUBLIC "-//W3C//DTD SVG 1.1//EN" "http://www.w3.org/Graphics/SVG/1.1/DTD/svg11.dtd">
<svg version="1.1" id="Layer_1" xmlns="http://www.w3.org/2000/svg" xmlns:xlink="http://www.w3.org/1999/xlink" x="0px" y="0px"
	 width="25px" height="25px" viewBox="-8 0 25 25" enable-background="new -8 0 25 25" xml:space="preserve">
<g id="Sass_4_">
	<rect x="-2.949" y="19.347" fill="#FFC10D" width="7.323" height="1.616"/>
	
		<rect x="4.627" y="19.474" fill="none" stroke="#FFC10D" stroke-width="0.25" stroke-miterlimit="10" width="7.322" height="1.361"/>
	<path id="Sass_5_" fill="#FFFFFF" d="M9.949,5.76C9.908,5.53,9.818,5.307,9.669,5.1C9.176,4.424,8.292,4.177,7.5,4.086
		C6.598,3.983,5.666,4.042,4.785,4.257c-0.244,0.06-0.484,0.132-0.721,0.219C3.506,4.68,2.986,4.977,2.493,5.309
		C2.034,5.616,1.579,5.942,1.167,6.313c-0.522,0.47-0.94,1.066-1.188,1.725C-0.152,8.41-0.253,8.851-0.168,9.331
		c0.078,0.444,0.266,0.842,0.495,1.168c0.229,0.325,0.486,0.595,0.739,0.832c0.486,0.455,0.963,0.823,1.335,1.205
		c-0.141,0.058-0.284,0.118-0.43,0.187c-0.125,0.063-0.25,0.121-0.378,0.192c-0.127,0.081-0.241,0.164-0.355,0.253
		c-0.226,0.18-0.445,0.378-0.645,0.62c-0.196,0.241-0.39,0.521-0.478,0.902c-0.025,0.091-0.03,0.194-0.038,0.295
		C0.08,15.08,0.08,15.171,0.097,15.27c0.028,0.193,0.101,0.415,0.257,0.605c0.149,0.188,0.392,0.325,0.569,0.365
		c0.191,0.073,0.39,0.087,0.588,0.097c0.394-0.006,0.755-0.125,1.084-0.289c0.332-0.17,0.62-0.378,0.883-0.687
		c0.141-0.15,0.238-0.332,0.335-0.515c0.083-0.18,0.142-0.356,0.188-0.551c0.098-0.382,0.09-0.827-0.035-1.232
		c-0.044-0.146-0.104-0.279-0.172-0.408c0.07-0.023,0.144-0.052,0.21-0.071c0.584-0.176,1.337-0.213,1.894,0.078
		c0.157,0.083,0.284,0.199,0.422,0.31c0.103,0.082,0.163,0.198,0.232,0.306c0.155,0.242,0.144,0.573,0.045,0.833
		c-0.049,0.129-0.097,0.262-0.206,0.351c-0.042,0.036-0.294,0.151-0.262,0.237c0.028,0.075,0.125,0.145,0.41-0.026
		c0.604-0.362,0.681-1.175,0.349-1.745c-0.261-0.445-0.696-0.742-1.186-0.883c-0.266-0.075-0.557-0.121-0.833-0.131
		c-0.249-0.008-0.5,0-0.743,0.052c-0.07,0.015-0.637,0.212-0.654,0.19c-0.033-0.044-0.067-0.09-0.102-0.131
		c-0.492-0.576-1.05-0.996-1.521-1.447C1.435,10.19,0.955,9.68,0.92,9.079c-0.042-0.728,0.584-1.426,1.066-1.9
		c0.156-0.154,0.323-0.298,0.497-0.431c0.779-0.602,1.735-1.077,2.666-1.391c0.264-0.09,0.535-0.165,0.808-0.225
		C6.338,5.05,6.738,5.008,7.129,5.01c0.55,0,1.102,0.092,1.559,0.42c0.283,0.204,0.434,0.514,0.425,0.861
		C9.086,7.295,8.123,8.095,7.279,8.467C6.331,8.888,5.066,9.252,4.307,8.904c-0.372-0.169-0.728-0.479-0.83-0.312
		c-0.075,0.123,0.739,0.67,0.821,0.715c0.74,0.398,1.914,0.287,2.813,0.016c0.992-0.299,1.891-0.948,2.436-1.838
		C9.856,6.976,10.057,6.344,9.949,5.76z M3.043,13.784c0,0.205-0.043,0.423-0.113,0.633c-0.082,0.177-0.155,0.331-0.299,0.478
		c-0.276,0.301-0.634,0.493-0.942,0.524c-0.04,0.012-0.075,0.002-0.112,0.001c-0.035-0.005-0.074,0.003-0.107-0.009
		c-0.062-0.023-0.146-0.038-0.173-0.058c-0.031-0.024-0.055-0.042-0.077-0.081c-0.019-0.042-0.042-0.099-0.051-0.174
		c-0.006-0.034-0.007-0.08-0.01-0.117c0.003-0.033-0.001-0.063,0.005-0.099c0.008-0.069,0.025-0.145,0.053-0.222
		c0.055-0.152,0.144-0.31,0.246-0.457c0.207-0.29,0.465-0.57,0.725-0.753c0.209-0.141,0.435-0.271,0.661-0.395
		C2.979,13.299,3.051,13.54,3.043,13.784z"/>
</g>
</svg>
