<?xml version="1.0" encoding="utf-8"?>
<!-- Generator: Adobe Illustrator 16.0.0, SVG Export Plug-In . SVG Version: 6.00 Build 0)  -->
<!DOCTYPE svg PUBLIC "-//W3C//DTD SVG 1.1//EN" "http://www.w3.org/Graphics/SVG/1.1/DTD/svg11.dtd">
<svg version="1.1" id="Layer_1" xmlns="http://www.w3.org/2000/svg" xmlns:xlink="http://www.w3.org/1999/xlink" x="0px" y="0px"
	 width="443px" height="322px" viewBox="0 0 443 322" enable-background="new 0 0 443 322" xml:space="preserve">
<g id="Logo_1_">
	<path id="dot" fill-rule="evenodd" clip-rule="evenodd" fill="#FFC10D" d="M47.272,184.728c26.137,0,47.323,21.194,47.323,47.344
		c0,26.146-21.186,47.343-47.323,47.343s-47.323-21.197-47.323-47.343C-0.051,205.922,21.135,184.728,47.272,184.728z"/>
	<g>
		<g>
			<path fill="#FFC10D" d="M443.215,215.308c-6.56-0.501-9.39-1.768-11.91-4.414c-2.521-2.655-3.782-7.378-3.782-14.187V0
				c0,0-18.853,7.327-37.249,7.327C372.752,7.327,355.654,0,355.654,0v106.676c-5.811-10.593-14.064-18.785-24.781-24.59
				c-10.726-5.798-22.51-8.702-35.368-8.702c-12.863,0-24.586,2.59-35.181,7.757C249.733,86.311,240.592,93.5,232.9,102.7
				c-7.696,9.212-13.684,20.115-17.969,32.726c-3.76,11.058-5.868,22.891-6.331,35.495c-5.044-3.11-10.987-6.056-17.875-8.829
				c-10.342-4.161-23.077-8.131-38.208-11.914c-6.56-1.515-12.042-2.962-16.452-4.353c-4.416-1.382-7.885-2.706-10.402-3.97
				c-2.524-1.258-4.292-2.583-5.297-3.974c-1.01-1.38-1.511-3.082-1.511-5.106c0-3.528,1.702-6.11,5.106-7.753
				c3.404-1.639,7.877-2.457,13.429-2.457c8.567,0,17.523,1.454,26.856,4.349c9.327,2.899,24.519,6.664,38.642,13.217
				c0,0,2.785-13.596,9.113-25.085c5.9-10.719,15.374-19.386,15.374-19.386c-15.887-7.311-31.795-13.195-47.051-16.978
				c-15.261-3.783-29.57-5.676-42.934-5.676c-12.36,0-23.773,1.704-34.236,5.108c-10.467,3.404-19.48,8.264-27.045,14.561
				c-7.565,6.31-13.429,13.75-17.59,22.322c-4.162,8.576-6.24,17.908-6.24,27.992c0,7.565,1.256,14.186,3.781,19.858
				c2.519,5.674,6.68,10.846,12.484,15.512c5.796,4.666,13.488,8.889,23.075,12.672c9.579,3.782,21.43,7.565,35.557,11.348
				c14.119,3.534,23.7,6.56,28.746,9.076c5.043,2.524,7.567,5.428,7.567,8.702c0,6.307-6.305,9.459-18.914,9.459
				c-14.547,0-40.206-6.898-40.206-6.898s4.473,13.845-1.708,29.081c-6.906,17.005-16.518,21.093-16.518,21.093
				s23.5,3.88,33.088,5.143c9.581,1.258,18.535,1.894,26.856,1.894c26.728,0,47.852-5.921,63.36-17.782
				c7.857-6.005,13.716-13.115,17.593-21.321c2.435,3.593,5.07,6.991,7.939,10.165c8.323,9.206,18.218,16.332,29.692,21.373
				s24.023,7.565,37.64,7.565c13.111,0,25.47-2.777,37.07-8.323c11.597-5.546,20.808-14.373,27.615-26.479l1.515,7.188
				c3.783,18.413,17.9,27.615,42.368,27.615c4.279,0,9.198-0.322,14.752-0.945c5.538-0.635,7.989-1.408,15.302-2.667
				c0,0-9.675-15.477-9.675-30.787C431.26,230.577,443.215,215.308,443.215,215.308z M356.028,179.532c0,9.41,0,19.438,0,19.438
				c-9.585,13.625-20.938,20.433-34.049,20.433c-11.853,0-21.369-3.786-28.556-11.353c-7.187-7.565-10.782-17.646-10.782-30.262
				c0-6.051,0.949-11.727,2.838-17.02c1.894-5.295,4.41-9.958,7.565-13.997c3.152-4.029,6.931-7.187,11.349-9.457
				c4.41-2.268,9.268-3.404,14.565-3.404c7.565,0,14.752,2.714,21.564,8.131c6.808,5.428,11.971,12.549,15.505,21.374
				C356.028,163.416,356.028,171.229,356.028,179.532z"/>
		</g>
	</g>
	<g id="name_1_">
		<path fill="#FFC10D" d="M9.797,321.892c-0.527,0-1.049-0.024-1.564-0.073c-0.071-0.008-0.193-0.036-0.193-0.036l-0.018-1.837
			c0,0,0.138-0.016,0.211-0.008c0.509,0.057,1.028,0.086,1.564,0.086c2.121,0,3.83-0.444,5.122-1.332
			c1.295-0.888,1.94-2.13,1.94-3.722c0-0.749-0.161-1.38-0.489-1.894c-0.328-0.517-0.818-0.948-1.474-1.307
			c-0.655-0.362-1.466-0.685-2.433-0.961c-0.967-0.285-2.091-0.578-3.368-0.888c-1.372-0.317-2.567-0.627-3.581-0.937
			c-1.014-0.313-1.845-0.688-2.502-1.124c-0.654-0.439-1.146-0.969-1.474-1.588c-0.326-0.627-0.489-1.421-0.489-2.391
			c0-1.217,0.232-2.275,0.698-3.18c0.468-0.904,1.116-1.653,1.942-2.248c0.827-0.59,1.777-1.034,2.854-1.327
			c1.075-0.301,2.223-0.448,3.438-0.448c1.902,0,3.585,0.318,5.051,0.957c1.468,0.644,2.606,1.462,3.417,2.456l-1.31,1.266
			c-0.812-0.94-1.865-1.641-3.16-2.104c-1.292-0.473-2.673-0.705-4.139-0.705c-0.904,0-1.755,0.094-2.551,0.281
			c-0.794,0.188-1.49,0.484-2.083,0.888c-0.591,0.407-1.059,0.933-1.401,1.571c-0.344,0.636-0.513,1.393-0.513,2.269
			c0,0.717,0.116,1.295,0.348,1.73c0.234,0.436,0.609,0.811,1.122,1.124c0.517,0.31,1.179,0.582,1.989,0.814
			c0.813,0.235,1.78,0.496,2.903,0.773c1.527,0.374,2.883,0.732,4.07,1.075c1.183,0.346,2.172,0.766,2.971,1.266
			c0.794,0.497,1.402,1.092,1.822,1.775c0.424,0.688,0.633,1.56,0.633,2.618c0,2.187-0.849,3.926-2.551,5.221
			C14.903,321.249,12.635,321.892,9.797,321.892z"/>
		<path fill="#FFC10D" d="M64.676,321.428h-2.339V307.86c0-3.025-0.517-5.285-1.543-6.783c-1.03-1.499-2.526-2.248-4.493-2.248
			c-0.998,0-1.979,0.188-2.946,0.562c-0.969,0.375-1.863,0.904-2.692,1.593c-0.829,0.684-1.551,1.49-2.174,2.41
			c-0.625,0.92-1.077,1.91-1.358,2.969v15.065h-2.339v-34.154h2.339v15.628c0.998-1.906,2.378-3.417,4.141-4.536
			c1.761-1.124,3.657-1.687,5.685-1.687c1.339,0,2.494,0.249,3.463,0.75c0.967,0.496,1.767,1.213,2.409,2.149
			c0.639,0.937,1.105,2.068,1.402,3.392c0.297,1.324,0.446,2.814,0.446,4.467V321.428z"/>
		<path fill="#FFC10D" d="M97.892,321.892c-1.122,0-2.176-0.191-3.158-0.582c-0.983-0.391-1.842-0.92-2.573-1.592
			c-0.735-0.668-1.305-1.466-1.708-2.386c-0.407-0.921-0.609-1.906-0.609-2.973c0-1.059,0.25-2.024,0.747-2.899
			c0.499-0.871,1.201-1.629,2.107-2.268c0.904-0.64,1.973-1.137,3.205-1.499c1.231-0.354,2.596-0.537,4.094-0.537
			c1.311,0,2.634,0.118,3.978,0.354c1.337,0.232,2.539,0.555,3.602,0.957v-2.386c0-2.309-0.656-4.141-1.965-5.497
			c-1.309-1.355-3.09-2.036-5.336-2.036c-1.213,0-2.488,0.253-3.813,0.749c-1.323,0.501-2.659,1.218-3.999,2.154l-0.935-1.592
			c3.15-2.121,6.112-3.181,8.887-3.181c2.934,0,5.247,0.848,6.949,2.55c1.698,1.697,2.549,4.047,2.549,7.044v11.882
			c0,0.777,0.328,1.168,0.981,1.168v2.105c-0.155,0.028-0.301,0.049-0.444,0.049c-0.14,0-0.272,0-0.399,0
			c-0.558,0-1.073-0.195-1.541-0.586c-0.466-0.392-0.703-0.896-0.703-1.523v-2.011c-1.124,1.466-2.549,2.589-4.279,3.367
			C101.796,321.501,99.919,321.892,97.892,321.892z M98.36,320.023c1.806,0,3.478-0.338,5.004-1.006
			c1.529-0.672,2.667-1.58,3.414-2.736c0.529-0.623,0.798-1.246,0.798-1.873v-4.3c-2.372-0.876-4.807-1.312-7.301-1.312
			c-2.431,0-4.398,0.497-5.894,1.498c-1.499,0.994-2.246,2.305-2.246,3.926c0,0.814,0.155,1.58,0.468,2.297
			c0.312,0.716,0.747,1.327,1.309,1.849c0.562,0.513,1.226,0.916,1.989,1.213C96.666,319.877,97.486,320.023,98.36,320.023z"/>
		<path fill="#FFC10D" d="M144.86,321.892c-5.208,0-7.814-3.583-7.814-10.758v-14.035h2.339v13.71c0,5.985,2.044,8.982,6.132,8.982
			c1.026,0,2.034-0.18,3.015-0.537c0.981-0.358,1.896-0.859,2.736-1.499c0.843-0.639,1.584-1.413,2.223-2.321
			c0.637-0.899,1.146-1.897,1.521-2.988v-15.347h2.339v21.056c0,0.777,0.326,1.168,0.981,1.168v2.105
			c-0.188,0.028-0.342,0.049-0.466,0.049c-0.126,0-0.25,0-0.375,0c-0.657,0-1.195-0.195-1.614-0.586
			c-0.421-0.392-0.631-0.896-0.631-1.523v-3.697c-1.093,1.967-2.559,3.494-4.399,4.585
			C149.01,321.347,147.013,321.892,144.86,321.892z"/>
		<path fill="#FFC10D" d="M204.931,321.428h-2.339V307.86c0-3.151-0.442-5.439-1.333-6.877c-0.886-1.438-2.315-2.154-4.28-2.154
			c-1.03,0-2.052,0.188-3.064,0.562c-1.014,0.375-1.95,0.904-2.81,1.593c-0.857,0.684-1.612,1.49-2.266,2.41
			c-0.653,0.92-1.142,1.91-1.449,2.969v15.065h-2.341v-24.329h2.152v5.803c0.497-0.937,1.122-1.784,1.871-2.55
			c0.749-0.766,1.574-1.417,2.481-1.967c0.904-0.545,1.877-0.965,2.922-1.258c1.046-0.301,2.113-0.448,3.207-0.448
			c2.651,0,4.521,0.929,5.613,2.785c1.091,1.857,1.637,4.512,1.637,7.973V321.428z"/>
		<path fill="#FFC10D" d="M242.172,321.892c-1.686,0-3.245-0.35-4.679-1.05c-1.438-0.7-2.676-1.637-3.718-2.806
			c-1.047-1.169-1.856-2.513-2.435-4.023s-0.863-3.082-0.863-4.703c0-1.686,0.276-3.29,0.839-4.82
			c0.562-1.527,1.344-2.867,2.341-4.023c0.998-1.152,2.175-2.072,3.53-2.757c1.36-0.688,2.847-1.03,4.471-1.03
			c1.059,0,2.061,0.159,3.014,0.465c0.953,0.317,1.824,0.729,2.622,1.241c0.794,0.518,1.519,1.116,2.175,1.805
			c0.651,0.684,1.217,1.417,1.686,2.198v-15.114h2.337v30.881c0,0.777,0.326,1.168,0.985,1.168v2.105
			c-0.158,0.028-0.301,0.049-0.423,0.049c-0.123,0-0.253,0-0.375,0c-0.685,0-1.242-0.22-1.661-0.655
			c-0.42-0.439-0.632-0.925-0.632-1.454v-2.806c-0.997,1.621-2.333,2.916-3.998,3.881
			C245.718,321.411,243.979,321.892,242.172,321.892z M242.591,319.791c0.843,0,1.747-0.171,2.716-0.513
			c0.961-0.347,1.869-0.823,2.712-1.434c0.843-0.603,1.552-1.299,2.126-2.081c0.578-0.777,0.912-1.616,1.01-2.524v-8.001
			c-0.342-0.871-0.839-1.702-1.475-2.5c-0.639-0.798-1.368-1.482-2.178-2.061c-0.811-0.578-1.682-1.034-2.618-1.381
			c-0.937-0.342-1.841-0.517-2.712-0.517c-1.405,0-2.676,0.31-3.812,0.912c-1.14,0.61-2.126,1.409-2.948,2.39
			c-0.83,0.981-1.462,2.105-1.897,3.368c-0.436,1.262-0.651,2.565-0.651,3.909c0,1.4,0.244,2.728,0.745,3.974
			s1.193,2.354,2.081,3.322c0.888,0.97,1.922,1.727,3.09,2.293C239.948,319.51,241.219,319.791,242.591,319.791z"/>
		<path fill="#FFC10D" d="M291.571,321.892c-1.71,0-3.307-0.333-4.772-1.001c-1.466-0.676-2.736-1.597-3.811-2.761
			c-1.075-1.173-1.918-2.521-2.525-4.048c-0.61-1.531-0.912-3.168-0.912-4.91c0-1.719,0.302-3.331,0.912-4.846
			c0.607-1.511,1.441-2.834,2.501-3.975c1.059-1.14,2.324-2.035,3.79-2.691c1.471-0.655,3.042-0.981,4.728-0.981
			c1.711,0,3.299,0.334,4.748,1.002c1.449,0.676,2.704,1.58,3.763,2.72c1.059,1.137,1.897,2.464,2.508,3.975
			c0.606,1.515,0.912,3.111,0.912,4.797c0,0.154-0.008,0.35-0.024,0.586c-0.017,0.229-0.024,0.383-0.024,0.439h-21.381
			c0.094,1.405,0.423,2.708,0.981,3.909c0.562,1.197,1.27,2.235,2.129,3.111c0.859,0.871,1.849,1.56,2.973,2.061
			c1.12,0.496,2.325,0.745,3.604,0.745c0.839,0,1.678-0.118,2.5-0.351c0.827-0.232,1.593-0.55,2.297-0.961
			c0.7-0.403,1.323-0.896,1.865-1.47c0.549-0.578,0.977-1.21,1.29-1.897l2.057,0.562c-0.375,0.871-0.896,1.678-1.563,2.411
			c-0.676,0.732-1.454,1.363-2.346,1.893c-0.884,0.534-1.86,0.945-2.919,1.242C293.786,321.745,292.695,321.892,291.571,321.892z
			 M301.115,308.324c-0.089-1.433-0.415-2.744-0.956-3.925c-0.55-1.189-1.25-2.207-2.105-3.07c-0.863-0.855-1.849-1.522-2.973-2.012
			c-1.124-0.48-2.32-0.725-3.6-0.725c-1.278,0-2.483,0.244-3.607,0.725c-1.12,0.489-2.109,1.156-2.964,2.012
			c-0.863,0.863-1.548,1.89-2.061,3.091c-0.514,1.201-0.818,2.504-0.912,3.904H301.115z"/>
		<path fill="#FFC10D" d="M358.944,297.099h2.337l-10.525,24.329h-1.967l-5.473-12.867l-5.473,12.867h-2.012l-10.48-24.329h2.292
			l9.313,21.756l5.098-11.979l-4.161-9.731h2.057l3.367,8.05l3.322-8.05h2.057l-4.116,9.731l5.102,11.979L358.944,297.099z"/>
		<path fill="#FFC10D" d="M391.409,321.892c-1.12,0-2.175-0.191-3.156-0.582c-0.985-0.391-1.84-0.92-2.573-1.592
			c-0.732-0.668-1.303-1.466-1.706-2.386c-0.407-0.921-0.61-1.906-0.61-2.973c0-1.059,0.248-2.024,0.745-2.899
			c0.505-0.871,1.205-1.629,2.109-2.268c0.903-0.64,1.971-1.137,3.204-1.499c1.233-0.354,2.598-0.537,4.097-0.537
			c1.307,0,2.634,0.118,3.974,0.354c1.34,0.232,2.541,0.555,3.604,0.957v-2.386c0-2.309-0.655-4.141-1.967-5.497
			c-1.307-1.355-3.09-2.036-5.334-2.036c-1.213,0-2.487,0.253-3.811,0.749c-1.328,0.501-2.659,1.218-4.003,2.154l-0.937-1.592
			c3.151-2.121,6.115-3.181,8.893-3.181c2.932,0,5.245,0.848,6.946,2.55c1.702,1.697,2.55,4.047,2.55,7.044v11.882
			c0,0.777,0.329,1.168,0.985,1.168v2.105c-0.155,0.028-0.31,0.049-0.448,0.049s-0.272,0-0.399,0c-0.562,0-1.074-0.195-1.543-0.586
			c-0.468-0.392-0.7-0.896-0.7-1.523v-2.011c-1.12,1.466-2.549,2.589-4.279,3.367C395.318,321.501,393.437,321.892,391.409,321.892z
			 M391.877,320.023c1.809,0,3.478-0.338,5.009-1.006c1.522-0.672,2.667-1.58,3.412-2.736c0.529-0.623,0.798-1.246,0.798-1.873v-4.3
			c-2.369-0.876-4.805-1.312-7.301-1.312c-2.431,0-4.394,0.497-5.892,1.498c-1.499,0.994-2.248,2.305-2.248,3.926
			c0,0.814,0.155,1.58,0.469,2.297c0.31,0.716,0.749,1.327,1.307,1.849c0.563,0.513,1.226,0.916,1.991,1.213
			C390.184,319.877,391.002,320.023,391.877,320.023z"/>
		<path fill="#FFC10D" d="M442.36,299.204c-2.216,0.064-4.138,0.712-5.758,1.941c-1.621,1.234-2.761,2.928-3.412,5.078v15.204
			h-2.346v-24.329h2.203v5.989c0.843-1.718,1.958-3.11,3.343-4.186c1.389-1.075,2.883-1.694,4.471-1.849
			c0.31,0,0.591-0.008,0.839-0.024c0.253-0.017,0.469-0.024,0.66-0.024V299.204z"/>
	</g>
</g>
</svg>
