<?xml version="1.0" encoding="utf-8"?>
<!-- Generator: Adobe Illustrator 16.0.0, SVG Export Plug-In . SVG Version: 6.00 Build 0)  -->
<!DOCTYPE svg PUBLIC "-//W3C//DTD SVG 1.1//EN" "http://www.w3.org/Graphics/SVG/1.1/DTD/svg11.dtd">
<svg version="1.1" id="Layer_1" xmlns="http://www.w3.org/2000/svg" xmlns:xlink="http://www.w3.org/1999/xlink" x="0px" y="0px"
	 width="25px" height="25px" viewBox="-8 0 25 25" enable-background="new -8 0 25 25" xml:space="preserve">
<g id="Wp_2_">
	<path fill="#FFFFFF" d="M6.56,12.914c-0.006-0.023-0.008-0.047-0.014-0.07c-0.013-0.076,0-0.158-0.076-0.209
		c-0.361-0.986-0.722-1.973-1.08-2.961C5.376,9.676,5.366,9.68,5.353,9.682c-0.072,0.207-0.144,0.414-0.217,0.621
		c-0.146,0.424-0.297,0.85-0.439,1.273c-0.121,0.352-0.233,0.705-0.354,1.057c-0.111,0.326-0.229,0.65-0.341,0.979
		c-0.123,0.355-0.243,0.711-0.368,1.066c-0.135,0.381-0.268,0.76-0.404,1.139c-0.025,0.072-0.07,0.111-0.156,0.109
		c-0.131-0.006-0.262-0.01-0.393,0.002c-0.097,0.008-0.147-0.037-0.176-0.117c-0.196-0.545-0.39-1.088-0.588-1.631
		c-0.244-0.674-0.492-1.344-0.739-2.016c-0.193-0.529-0.382-1.061-0.573-1.592C0.322,9.797,0.037,9.025-0.243,8.254
		c-0.249-0.686-0.498-1.369-0.741-2.057C-1.013,6.115-1.057,6.08-1.144,6.08c-0.165,0-0.33,0.008-0.497-0.01
		c-0.204-0.023-0.351-0.178-0.34-0.371c0.008-0.184,0.17-0.332,0.366-0.336c0.759-0.01,1.519-0.014,2.274-0.029
		C1.026,5.328,1.39,5.295,1.757,5.27c0.199-0.014,0.33,0.068,0.346,0.232c0.015,0.172-0.087,0.285-0.281,0.307
		C1.618,5.83,1.414,5.846,1.209,5.861C1.116,5.865,1.082,5.893,1.116,5.998c0.19,0.561,0.376,1.127,0.565,1.689
		c0.4,1.199,0.801,2.395,1.201,3.592c0.181,0.539,0.363,1.074,0.545,1.615c0.023,0.066,0.053,0.135,0.08,0.201
		c0.012,0.025,0.014,0.063,0.056,0.063c0.042-0.002,0.042-0.039,0.052-0.066c0.09-0.256,0.176-0.512,0.262-0.77
		c0.121-0.357,0.238-0.713,0.359-1.072c0.117-0.352,0.232-0.699,0.351-1.049c0.091-0.27,0.183-0.539,0.274-0.811
		c0.061-0.18,0.121-0.361,0.179-0.541c0.047-0.143-0.054-0.26-0.095-0.381c-0.112-0.342-0.24-0.676-0.363-1.012
		C4.435,7.059,4.29,6.662,4.144,6.264c-0.034-0.094-0.076-0.186-0.1-0.279c-0.019-0.08-0.053-0.105-0.131-0.113
		C3.704,5.855,3.497,5.836,3.29,5.811C3.114,5.789,3.026,5.686,3.039,5.525c0.01-0.156,0.12-0.25,0.294-0.246
		C3.784,5.293,4.235,5.338,4.69,5.354c0.586,0.018,1.168-0.008,1.751-0.045c0.159-0.01,0.322-0.023,0.481-0.031
		C7.077,5.271,7.18,5.363,7.198,5.512c0.018,0.141-0.07,0.273-0.217,0.295C6.753,5.838,6.522,5.857,6.292,5.873
		C6.2,5.881,6.175,5.889,6.211,5.994c0.152,0.438,0.291,0.879,0.435,1.322c0.055,0.17,0.112,0.338,0.17,0.508
		c0,0.033-0.008,0.072,0.039,0.088C6.857,7.928,6.86,7.945,6.862,7.961c0,0.068-0.005,0.146,0.071,0.188
		C6.937,8.164,6.938,8.18,6.941,8.195c0,0.07-0.005,0.146,0.07,0.188c0.013,0.051,0.026,0.102,0.042,0.148
		c0,0.033-0.008,0.072,0.037,0.09C7.093,8.635,7.097,8.65,7.099,8.668c0,0.072-0.006,0.145,0.07,0.188
		c0.002,0.016,0.006,0.031,0.008,0.043C7.175,8.973,7.171,9.047,7.247,9.09C7.25,9.105,7.253,9.123,7.256,9.135
		C7.253,9.209,7.25,9.281,7.326,9.326c0,0.008,0.003,0.016,0.003,0.023c0.01,0.084-0.006,0.176,0.08,0.234
		c0.15,0.439,0.299,0.877,0.445,1.318c0.139,0.418,0.275,0.84,0.416,1.258c0.1,0.301,0.205,0.602,0.307,0.898
		c0.011,0.029,0.008,0.063,0.05,0.063c0.044,0,0.04-0.035,0.048-0.063c0.127-0.42,0.264-0.834,0.384-1.254
		c0.152-0.523,0.335-1.039,0.503-1.557c0.201-0.621,0.336-1.256,0.254-1.914C9.76,7.889,9.614,7.473,9.401,7.078
		c-0.198-0.371-0.45-0.709-0.625-1.094C8.493,5.367,8.562,4.759,9.038,4.34c0.5-0.439,1.57-0.393,1.96,0.494
		c0.142,0.32,0.226,0.65,0.23,0.998c0.008,0.557,0.016,1.115-0.086,1.668c-0.092,0.488-0.243,0.957-0.414,1.424
		c-0.173,0.471-0.335,0.947-0.5,1.42c-0.228,0.658-0.452,1.313-0.678,1.969c-0.167,0.484-0.333,0.969-0.499,1.453
		c-0.147,0.422-0.294,0.842-0.438,1.264C8.52,15.307,8.438,15.59,8.31,15.857c-0.025,0.057-0.055,0.08-0.114,0.078
		c-0.131-0.004-0.262-0.006-0.393,0c-0.081,0.002-0.121-0.039-0.149-0.102c-0.22-0.486-0.395-0.988-0.576-1.488
		c-0.141-0.396-0.295-0.795-0.441-1.189c-0.008-0.021-0.011-0.043-0.014-0.064C6.625,13.018,6.638,12.945,6.56,12.914z"/>
	<path fill="#FFFFFF" d="M7.413,9.572C7.323,9.518,7.339,9.424,7.331,9.34C7.415,9.398,7.407,9.488,7.413,9.572z"/>
	<path fill="#FFFFFF" d="M6.47,12.637c0.076,0.053,0.063,0.137,0.076,0.209C6.474,12.795,6.468,12.715,6.47,12.637z"/>
	<path fill="#FFFFFF" d="M6.934,8.139C6.857,8.094,6.862,8.02,6.862,7.949C6.937,7.994,6.931,8.066,6.934,8.139z"/>
	<path fill="#FFFFFF" d="M7.012,8.373c-0.075-0.043-0.07-0.117-0.07-0.188C7.015,8.229,7.009,8.303,7.012,8.373z"/>
	<path fill="#FFFFFF" d="M7.169,8.844c-0.076-0.043-0.07-0.117-0.07-0.188C7.169,8.701,7.167,8.773,7.169,8.844z"/>
	<path fill="#FFFFFF" d="M7.247,9.08c-0.076-0.045-0.07-0.117-0.07-0.191C7.247,8.936,7.247,9.01,7.247,9.08z"/>
	<path fill="#FFFFFF" d="M7.326,9.314c-0.076-0.043-0.07-0.117-0.07-0.191C7.326,9.172,7.326,9.244,7.326,9.314z"/>
	<path fill="#FFFFFF" d="M6.56,12.914c0.081,0.031,0.068,0.1,0.068,0.166C6.554,13.047,6.569,12.975,6.56,12.914z"/>
	<path fill="#FFFFFF" d="M6.854,7.9C6.808,7.887,6.818,7.85,6.815,7.813C6.853,7.834,6.868,7.863,6.854,7.9z"/>
	<path fill="#FFFFFF" d="M7.091,8.609C7.044,8.594,7.054,8.557,7.054,8.52C7.089,8.541,7.106,8.57,7.091,8.609z"/>
	<rect x="-2.823" y="19.314" fill="#FFC10D" width="7.322" height="1.617"/>
	
		<rect x="4.752" y="19.441" fill="none" stroke="#FFC10D" stroke-width="0.25" stroke-miterlimit="10" width="7.323" height="1.361"/>
</g>
</svg>
